<svg id="Layer_1" data-name="Layer 1" xmlns="http://www.w3.org/2000/svg" xmlns:xlink="http://www.w3.org/1999/xlink" viewBox="0 0 539.99 486.48"><defs><style>.cls-1,.cls-5,.cls-9{fill:none;}.cls-2{fill:#dbbcc0;}.cls-3{fill:#fdfdff;}.cls-3,.cls-4,.cls-5{stroke:#fdfdff;stroke-width:1.01px;}.cls-3,.cls-4,.cls-5,.cls-9{stroke-miterlimit:10;}.cls-4{fill:#ffe1be;}.cls-6{fill:#cc4f3f;}.cls-7{fill:#ead1d3;}.cls-8{fill:#f5fffd;}.cls-9{stroke:#603705;stroke-width:2.25px;}.cls-10{clip-path:url(#clip-path);}.cls-11{fill:#a0d7d5;}</style><clipPath id="clip-path"><ellipse class="cls-1" cx="186.24" cy="132.24" rx="134.01" ry="99.19"/></clipPath></defs><g id="Group_284" data-name="Group 284"><g id="Group_279" data-name="Group 279"><path id="Path_483" data-name="Path 483" class="cls-2" d="M522.72,440.35a543.83,543.83,0,0,1-207.75,0V334.18a556.11,556.11,0,0,0,207.75,0Z"/><g id="Group_277" data-name="Group 277"><path id="Path_484" data-name="Path 484" class="cls-3" d="M522.35,334.58c.68-14.46-8.8-22.25-26.4-24.71,1.29-9.87-3.45-17.37-20.16-20.16,1.28-12.11-10.18-21-28.19-28.19-10.17-13.84-19.87-21.71-29.12-24,5.3,6.17-8.64,17.17-28.76,23.58-18,7.21-29.46,16.09-28.19,28.19-16.7,2.79-21.45,10.28-20.15,20.15-17.61,2.47-27.09,10.26-26.41,24.72A535.62,535.62,0,0,0,522.35,334.58Z"/></g><g id="Group_278" data-name="Group 278"><path id="Path_485" data-name="Path 485" class="cls-4" d="M522.53,335.21c.68-14.46-8.8-22.26-26.4-24.72,1.29-9.87-3.45-17.36-20.16-20.16,1.28-12.1-10.18-21-28.19-28.19-10.17-13.84-19.87-21.71-29.12-24,5.3,6.18-8.63,17.17-28.75,23.58-18,7.21-29.47,16.09-28.19,28.19-16.71,2.79-21.45,10.29-20.16,20.16-17.6,2.46-27.09,10.26-26.41,24.72A535.81,535.81,0,0,0,522.53,335.21Z"/></g><path id="Path_486" data-name="Path 486" class="cls-5" d="M447.6,261.52c-6.41-2.25-14-2.78-23.69,0"/><path id="Path_487" data-name="Path 487" class="cls-5" d="M361.53,289.31c9.6,3.5,23.25,6.13,32.84,2.62"/><path id="Path_488" data-name="Path 488" class="cls-5" d="M475.79,289.71q-16.85,1.55-20.05,3.88"/><path id="Path_489" data-name="Path 489" class="cls-5" d="M341.38,309.47a60.61,60.61,0,0,1,19.63-1.6"/><path id="Path_490" data-name="Path 490" class="cls-5" d="M496,309.87c-7.8-1.82-14.44-1.69-20.16,0-8.32,4.05-14.68,4.64-20.05,3.5"/></g><g id="Group_282" data-name="Group 282"><path id="Path_491" data-name="Path 491" class="cls-6" d="M229.25,269h0q-10.19-3.81-11.54-15.45h-63q-1.35,11.64-11.53,15.45h0C70.75,280.76,17.28,321.41,17.28,369.75c0,57.5,75.65,104.12,169,104.12s169-46.62,169-104.12C355.21,321.41,301.74,280.76,229.25,269Z"/><ellipse id="Ellipse_140" data-name="Ellipse 140" class="cls-7" cx="186.24" cy="363.49" rx="147.2" ry="85.58"/><path id="Path_492" data-name="Path 492" class="cls-6" d="M340.84,131.89c0-65.88-69.22-119.28-154.6-119.28S31.65,66,31.65,131.89c0,55.82,49.69,102.67,116.79,115.69a12.83,12.83,0,0,1,6.32,9.43h63a12.84,12.84,0,0,1,6.33-9.43C291.15,234.56,340.84,187.71,340.84,131.89Z"/><ellipse id="Ellipse_141" data-name="Ellipse 141" class="cls-8" cx="186.24" cy="132.24" rx="134.01" ry="99.19"/><line id="Line_11" data-name="Line 11" class="cls-9" x1="154.77" y1="257.01" x2="217.72" y2="257.01"/><g id="Group_281" data-name="Group 281"><g class="cls-10"><g id="Group_280" data-name="Group 280"><path id="Path_493" data-name="Path 493" class="cls-11" d="M217.48,238.66l19.57,27.23L321.56,34.15,302.35,4.82Z"/><path id="Path_494" data-name="Path 494" class="cls-11" d="M254.29,229.8l6.73,7.13L321,72l-6.09-9.26Z"/></g></g></g></g><g id="Group_283" data-name="Group 283"><path id="Path_495" data-name="Path 495" class="cls-7" d="M337.66,245.77,307,259.11a6.33,6.33,0,0,0-3.79,5.79v68.6h43.29V251.55a6.3,6.3,0,0,0-8.83-5.78Z"/><path id="Path_496" data-name="Path 496" class="cls-11" d="M349.36,468.34a166.74,166.74,0,0,1-50,0,7.83,7.83,0,0,1-6.61-7.74V339.9a10.43,10.43,0,0,1,10.44-10.44h0q22.93,4,42.32,0A10.43,10.43,0,0,1,356,339.9h0V460.6A7.83,7.83,0,0,1,349.36,468.34Z"/><path id="Path_497" data-name="Path 497" class="cls-2" d="M303.2,264.9c15.43-2.56,30.37-6,43.29-13.35a6.26,6.26,0,0,0-8.83-5.78L307,259.11A6.36,6.36,0,0,0,303.2,264.9Z"/></g></g></svg>