<svg id="Layer_1" data-name="Layer 1" xmlns="http://www.w3.org/2000/svg" viewBox="0 0 772.35 909.11"><defs><style>.cls-1{fill:#dbbcc0;}.cls-2{fill:#fdfdff;}.cls-3{fill:#ead1d3;}.cls-4{fill:#f3cbb8;}.cls-5{fill:#fcaf89;}.cls-6{fill:#cc4f3f;}.cls-7{fill:#00b2a9;}.cls-8{fill:#a0d7d5;}.cls-9{fill:#b0eae5;}</style></defs><path id="Path_25" data-name="Path 25" class="cls-1" d="M87.82,751.41,20.66,802.46l43.06,99.9,198.58-151Z"/><path id="Path_26" data-name="Path 26" class="cls-2" d="M136.94,751.41,53.29,815l45.88,12,99.39-75.54Z"/><path id="Path_27" data-name="Path 27" class="cls-2" d="M88,751.41l-72.33,55,34.28,8.94L134,751.4Z"/><path id="Path_28" data-name="Path 28" class="cls-3" d="M113,809.08c-10.53-13.84-29.75-18.44-49.63-3.91-19.88-14.53-39.1-9.93-49.63,3.91a36.53,36.53,0,0,0-1.28,41.81c9.21,14.33,27.12,31.83,50.9,51.47,23.79-19.64,41.7-37.14,50.91-51.47A36.53,36.53,0,0,0,113,809.08Z"/><path id="Path_29" data-name="Path 29" class="cls-4" d="M820.07,37.11,87.85,596.86l118.4,274.7L1299.84,37.11Z"/><path id="Path_30" data-name="Path 30" class="cls-5" d="M929.45,58.32l-751.9,573,126.18,32.88,795.15-605.9Z"/><path id="Path_31" data-name="Path 31" class="cls-5" d="M857.44,8.82,74.09,607.67l94.25,24.56L984,8.83Z"/><path id="Path_32" data-name="Path 32" class="cls-6" d="M341.72,615.08c-29-38.07-81.8-50.71-136.47-10.75-54.67-40-107.52-27.32-136.47,10.75-25.47,33.51-26.26,79.55-3.5,115,25.32,39.4,74.56,87.52,140,141.52,65.41-54,114.65-102.12,140-141.52C368,694.63,367.2,648.59,341.72,615.08Z"/><path id="Path_33" data-name="Path 33" class="cls-7" d="M772.35,418.42,262.17,804.2l33.45,77.59L907.87,418.42Z"/><path id="Path_34" data-name="Path 34" class="cls-8" d="M846.08,393.43,287.51,813.93l35.64,9.29L893.94,393.43Z"/><path id="Path_35" data-name="Path 35" class="cls-8" d="M806.89,391.85l-548.6,415.4,26.62,6.93L842.64,391.85Z"/><path id="Path_36" data-name="Path 36" class="cls-9" d="M333.88,809.35c-8.17-10.76-23.1-14.33-38.54-3-15.45-11.29-30.38-7.72-38.55,3a28.35,28.35,0,0,0-1,32.47c7.15,11.13,21.06,24.72,39.54,40,18.47-15.25,32.38-28.84,39.53-40A28.35,28.35,0,0,0,333.88,809.35Z"/></svg>