<svg id="Layer_1" data-name="Layer 1" xmlns="http://www.w3.org/2000/svg" viewBox="0 0 236.63 236.63"><defs><style>.cls-1{fill:#a0d7d5;}.cls-2{fill:#f5fffd;}</style></defs><g id="logo"><circle id="Ellipse_1" data-name="Ellipse 1" class="cls-1" cx="118.32" cy="118.32" r="90.66"/></g><g id="zI64PW.tif"><g id="Group_60" data-name="Group 60"><path id="Path_57" data-name="Path 57" class="cls-2" d="M128.37,177.64c-.69,0-.77-.22-.77-.82q0-26.31,0-52.62c0-.59.13-.77.75-.76,5.55,0,11.11,0,16.66,0,.48,0,.73-.06.8-.63Q147,113,148.35,103.2c.09-.67-.07-.81-.72-.8-6.43,0-12.85,0-19.29,0-.55,0-.73-.13-.73-.72,0-4,0-8.1,0-12.15a31.42,31.42,0,0,1,.16-3.5,7.32,7.32,0,0,1,6.4-7.06,19,19,0,0,1,3.91-.35c3.4,0,6.79,0,10.18,0,.79,0,.93-.24.93-1q0-8.55,0-17.11c0-.71-.24-.86-.89-.92-4.06-.38-8.13-.54-12.2-.64a41.06,41.06,0,0,0-11.49,1,23.17,23.17,0,0,0-15.75,12.32,30.79,30.79,0,0,0-3.07,13.8c0,5.16,0,10.33,0,15.5,0,.63-.13.81-.79.81-5.58,0-11.16,0-16.74,0-.64,0-.82.14-.81.8q0,9.75,0,19.5c0,.59.14.77.75.76,5.58,0,11.16,0,16.74,0,.64,0,.85.12.85.81q0,26.28,0,52.55c0,.65-.15.83-.82.83Z"/></g></g></svg>