<svg id="Layer_1" data-name="Layer 1" xmlns="http://www.w3.org/2000/svg" viewBox="0 0 1277.57 933.02"><defs><style>.cls-1{fill:#ffe1be;}.cls-2{fill:#fcaf89;}.cls-3{fill:#f3cbb8;}</style></defs><g id="Group_440" data-name="Group 440"><path id="Path_753" data-name="Path 753" class="cls-1" d="M25.25,685.31l252.42,84.36a3.62,3.62,0,0,0,4.38-1.82L630,74.32a3.63,3.63,0,0,0-1.61-4.87,3.68,3.68,0,0,0-1-.32L385.92,24.83a3.62,3.62,0,0,0-3.83,1.82L23.22,680.13a3.63,3.63,0,0,0,1.43,4.92A3.2,3.2,0,0,0,25.25,685.31Z"/><path id="Path_754" data-name="Path 754" class="cls-2" d="M23.54,690.89l39.7,114.6a3.65,3.65,0,0,0,2.29,2.26L368.45,908.07a3.62,3.62,0,0,0,4.11-5.51L281.33,771.65a3.61,3.61,0,0,0-1.82-1.37l-251.39-84a3.63,3.63,0,0,0-4.58,4.62Z"/><path id="Path_755" data-name="Path 755" class="cls-3" d="M630.1,74,281.61,768.73a3.64,3.64,0,0,0,.27,3.7l93.37,134a3.62,3.62,0,0,0,5.05.9,3.58,3.58,0,0,0,1.18-1.38L742.69,163a3.62,3.62,0,0,0-1-4.4L635.62,72.83a3.62,3.62,0,0,0-5.1.54A3.7,3.7,0,0,0,630.1,74Z"/><path id="Path_756" data-name="Path 756" class="cls-1" d="M747,161.57l352.89,132.71a3.62,3.62,0,0,1,0,6.8L907.44,370.74a3.62,3.62,0,0,1-2.83-.16L695.76,267.77a3.62,3.62,0,0,1-1.66-4.83l48.4-99.56A3.62,3.62,0,0,1,747,161.57Z"/><path id="Path_757" data-name="Path 757" class="cls-3" d="M1110.23,301.37l48.13,156.75a3.61,3.61,0,0,1-2.06,4.4L906,569.58a3.62,3.62,0,0,1-4.74-1.93,3.54,3.54,0,0,1-.28-1.5l5-192.42a3.63,3.63,0,0,1,2.39-3.31L1105.54,299a3.62,3.62,0,0,1,4.64,2.17A1.54,1.54,0,0,1,1110.23,301.37Z"/><path id="Path_758" data-name="Path 758" class="cls-2" d="M905.93,373.58l.85,196.31a3.63,3.63,0,0,1-3.72,3.53,3.68,3.68,0,0,1-1.55-.4L618.67,426.22a3.62,3.62,0,0,1-1.62-4.81l73.89-152a3.62,3.62,0,0,1,4.84-1.68h0L903.91,370.24A3.61,3.61,0,0,1,905.93,373.58Z"/><path id="Path_759" data-name="Path 759" class="cls-1" d="M1145.2,415.24l12.93,42.12a3.63,3.63,0,0,0,4.53,2.4,3.25,3.25,0,0,0,.4-.15l39.12-17.28a3.62,3.62,0,0,0,1.85-4.78,3.67,3.67,0,0,0-1.75-1.81l-52.06-24.84a3.62,3.62,0,0,0-5,4.34Z"/><path id="Path_760" data-name="Path 760" class="cls-3" d="M1210.53,443.07l44.12,153.15a3.61,3.61,0,0,1-1.86,4.24L1035.44,709.4a3.63,3.63,0,0,1-4.87-1.61,3.71,3.71,0,0,1-.38-1.7l3.71-189.84a3.63,3.63,0,0,1,2.2-3.26l169.52-72.25a3.63,3.63,0,0,1,4.76,1.92A2.86,2.86,0,0,1,1210.53,443.07Z"/><path id="Path_761" data-name="Path 761" class="cls-2" d="M1030.75,512.2,953.4,547.74a3.61,3.61,0,0,0-2,4.57l47.06,130.77a3.68,3.68,0,0,0,1,1.47l24.74,22.24a3.61,3.61,0,0,0,6-2.62l5.54-188.56a3.63,3.63,0,0,0-3.55-3.7A3.71,3.71,0,0,0,1030.75,512.2Z"/><path id="Path_762" data-name="Path 762" class="cls-3" d="M951.59,552.74,1013,718.07a3.63,3.63,0,0,1-1.79,4.51L749.18,852.31a3.61,3.61,0,0,1-4.85-1.65,3.52,3.52,0,0,1-.38-1.6V646.63a3.64,3.64,0,0,1,2.1-3.3l200.62-92.62a3.63,3.63,0,0,1,4.82,1.77C951.52,552.56,951.56,552.65,951.59,552.74Z"/><path id="Path_763" data-name="Path 763" class="cls-2" d="M744,848.1V646.23a3.59,3.59,0,0,0-1.59-3L570.52,526.61a3.62,3.62,0,0,0-5,1,2.51,2.51,0,0,0-.26.45L490.8,681.1a3.62,3.62,0,0,0,1.24,4.59L738.31,851.11a3.62,3.62,0,0,0,5.64-3Z"/><path id="Path_764" data-name="Path 764" class="cls-1" d="M745.82,643.42,898,574.92a3.63,3.63,0,0,0,.09-6.5L618.79,426.29a3.61,3.61,0,0,0-4.87,1.59l0,.05-45.46,93.51a3.62,3.62,0,0,0,1.22,4.58L742.24,643.14A3.61,3.61,0,0,0,745.82,643.42Z"/></g></svg>