<svg id="Layer_1" data-name="Layer 1" xmlns="http://www.w3.org/2000/svg" viewBox="0 0 322.61 467.5"><defs><style>.cls-1{fill:#a0d7d5;}.cls-2{fill:#ffe1be;}.cls-3{fill:#ead1d3;}.cls-4{fill:none;stroke:#dbbcc0;}.cls-4,.cls-6{stroke-linecap:round;stroke-linejoin:round;stroke-width:2.84px;}.cls-5{fill:#dbbcc0;}.cls-6{fill:#cc4f3f;stroke:#cc4f3f;}.cls-7{fill:#b0eae5;}</style></defs><path class="cls-1" d="M156,245.52h10.57a90.91,90.91,0,0,1,90.91,90.91V460.79a0,0,0,0,1,0,0H65.11a0,0,0,0,1,0,0V336.43A90.91,90.91,0,0,1,156,245.52Z"/><circle class="cls-2" cx="161.31" cy="38.86" r="32.15"/><circle class="cls-3" cx="161.31" cy="172.79" r="124.76"/><path class="cls-2" d="M154.71,45.44S185,137.91,283.58,140.26C283.58,140.26,263.44,45.44,154.71,45.44Z"/><path class="cls-2" d="M166.49,45.44s-30.31,92.47-128.86,94.82C37.63,140.26,57.76,45.44,166.49,45.44Z"/><circle class="cls-1" cx="215.98" cy="174.44" r="5.27"/><circle class="cls-1" cx="110.9" cy="174.44" r="5.27"/><path class="cls-4" d="M193.35,167.31s31.85-1.55,45.78,12.39"/><path class="cls-4" d="M134.06,167.31s-31.85-1.55-45.79,12.39"/><ellipse class="cls-5" cx="161.31" cy="200.61" rx="9.31" ry="3.65"/><path class="cls-6" d="M191,234.61a145.83,145.83,0,0,1-59.29,0Z"/><path class="cls-4" d="M129.19,138.2c5.9-2.73,13.27-2.68,21.61-.75,4.68,1.07,10.25.91,16.25.13a46.37,46.37,0,0,0,9-2.29,24.14,24.14,0,0,1,17.32.68"/><path class="cls-4" d="M136.3,124.59c4.59-2.72,10.33-2.67,16.83-.75,3.64,1.08,8,.91,12.65.13a29.92,29.92,0,0,0,7.05-2.29c4.32-1.91,8.82-1.71,13.48.69"/><path class="cls-3" d="M216.24,460.79H257.5V336.43a90.54,90.54,0,0,0-10.1-41.64C246.16,293.85,216.24,273,216.24,460.79Z"/><path class="cls-3" d="M106.06,460.79H64.8V336.43a90.54,90.54,0,0,1,10.1-41.64C76.13,293.85,106.06,273,106.06,460.79Z"/><path class="cls-7" d="M99.68,342.78c-8.85-59.14-23.91-48.65-24.78-48a90.54,90.54,0,0,0-10.1,41.64V348S89.74,335.77,99.68,342.78Z"/><path class="cls-7" d="M222.67,342.78c8.86-59.14,23.92-48.65,24.79-48a90.54,90.54,0,0,1,10.1,41.64V348S232.62,335.77,222.67,342.78Z"/></svg>