<svg id="Layer_1" data-name="Layer 1" xmlns="http://www.w3.org/2000/svg" viewBox="0 0 322.61 467.5"><defs><style>.cls-1{fill:#ffe1be;}.cls-2,.cls-7{fill:#cc4f3f;}.cls-3{fill:#ead1d3;}.cls-4{fill:#a0d7d5;}.cls-5{fill:none;stroke:#dbbcc0;}.cls-5,.cls-7{stroke-linecap:round;stroke-linejoin:round;stroke-width:2.85px;}.cls-6{fill:#dbbcc0;}.cls-7{stroke:#cc4f3f;}.cls-8{fill:#fcaf89;}</style></defs><path class="cls-1" d="M161.31,21.93h0a127.5,127.5,0,0,1,127.5,127.5V332.62a0,0,0,0,1,0,0h-255a0,0,0,0,1,0,0V149.43A127.5,127.5,0,0,1,161.31,21.93Z"/><path class="cls-2" d="M156.72,230H167.3a91,91,0,0,1,91,91V445.57a0,0,0,0,1,0,0H65.67a0,0,0,0,1,0,0V321a91,91,0,0,1,91-91Z"/><circle class="cls-3" cx="162.01" cy="157.15" r="124.94"/><circle class="cls-4" cx="217.03" cy="158.8" r="5.28"/><circle class="cls-4" cx="111.79" cy="158.8" r="5.28"/><path class="cls-1" d="M155.41,29.61s30.36,92.61,129,95C284.46,124.57,264.29,29.61,155.41,29.61Z"/><path class="cls-1" d="M167.2,29.61s-30.35,92.61-129,95C38.15,124.57,58.32,29.61,167.2,29.61Z"/><path class="cls-5" d="M135.42,154.06s-31.21-6.74-47.26,4.75"/><path class="cls-5" d="M193.39,154.06s31.22-6.74,47.27,4.75"/><ellipse class="cls-6" cx="162.01" cy="185" rx="9.32" ry="3.66"/><path class="cls-7" d="M191.7,219.06q-29.68,27.69-59.38,0Z"/><path class="cls-3" d="M217,445.57h41.32V321a90.6,90.6,0,0,0-10.12-41.69C247,278.39,217,257.53,217,445.57Z"/><path class="cls-3" d="M106.68,445.57H65.36V321a90.6,90.6,0,0,1,10.12-41.69C76.71,278.39,106.68,257.53,106.68,445.57Z"/><path class="cls-8" d="M100.3,327.38c-8.87-59.22-24-48.71-24.82-48.05A90.6,90.6,0,0,0,65.36,321v11.6S90.34,320.36,100.3,327.38Z"/><path class="cls-8" d="M223.46,327.38c8.88-59.22,24-48.71,24.83-48.05A90.59,90.59,0,0,1,258.4,321v11.6S233.43,320.36,223.46,327.38Z"/><path class="cls-7" d="M191.7,219.06c-11.93-4.92-25-11.87-29.69-3.88-6.06-7.89-18.14-1.37-29.69,3.88Z"/></svg>