<svg id="Layer_1" data-name="Layer 1" xmlns="http://www.w3.org/2000/svg" viewBox="0 0 1530.05 801.42"><defs><style>.cls-1{fill:#ffe1be;}.cls-2{fill:#f3cbb8;}.cls-3{fill:#cc4f3f;}.cls-4{fill:#fdfdff;}.cls-5{fill:#f5fffd;}.cls-6{fill:#a0d7d5;}.cls-7{fill:#dbbcc0;}.cls-8{fill:#00b2a9;}.cls-9{fill:#b0eae5;}.cls-10{fill:#ead1d3;}</style></defs><g id="Group_460" data-name="Group 460"><g id="Group_354" data-name="Group 354"><path id="Path_498" data-name="Path 498" class="cls-1" d="M531,727.77V450.93c0-29.64,28.51-51.67,56.85-43,13.5,4.14,24.61,14.53,27.17,30.06l-30.6,12.36c25.79-32.09,80.37,3,67.18,37.77L590.2,533.27c16.13-75.09,102.18-56.6,86,18.48,37,19.12,31.24,90.52-26.77,90.52l36.3-13.74,4.22,5.86c11.26,15.37,7.56,33.64-7.51,54.09,3.16,41.55-11.42,64.4-50.33,61.62-93,80.59-147.12-59.1-49-80.64"/><path id="Path_499" data-name="Path 499" class="cls-2" d="M519.9,727.77V450.93c0-29.64-28.52-51.67-56.86-43-13.5,4.14-24.61,14.53-27.16,30.06l30.6,12.36c-25.8-32.09-80.37,3-67.18,37.77l61.4,45.13c-16.12-75.09-102.18-56.6-86.05,18.48-37,19.12-31.23,90.52,26.77,90.52l-36.3-13.74-4.22,5.86c-11.26,15.37-7.56,33.64,7.51,54.09-3.16,41.55,11.42,64.4,50.33,61.62,93.05,80.59,147.12-59.1,49-80.64"/><g id="Group_350" data-name="Group 350"><g id="Group_289" data-name="Group 289"><g id="Group_285" data-name="Group 285"><path id="Path_500" data-name="Path 500" class="cls-3" d="M447.44,449.35c4.22,3.55,4.8,9.92-2,22a11.73,11.73,0,0,0-7.79-1.33c-2.73-13.69-.24-19.52,4.84-21.5A4.89,4.89,0,0,1,447.44,449.35Z"/><path id="Path_501" data-name="Path 501" class="cls-3" d="M437.73,511.37c5.08-2,7.57-7.81,4.84-21.5a11.74,11.74,0,0,1-7.79-1.33c-6.77,12.06-6.18,18.43-2,22A4.89,4.89,0,0,0,437.73,511.37Z"/></g><g id="Group_286" data-name="Group 286"><path id="Path_502" data-name="Path 502" class="cls-3" d="M424.59,452.9c5.38-.6,10.11,3.48,13.49,17a12.25,12.25,0,0,0-6.41,4.82c-11.2-7.66-13.39-13.63-11.13-18.77A5.06,5.06,0,0,1,424.59,452.9Z"/><path id="Path_503" data-name="Path 503" class="cls-3" d="M459.71,503.93c2.26-5.14.07-11.11-11.13-18.77a12.27,12.27,0,0,1-6.41,4.81c3.38,13.53,8.1,17.6,13.49,17A5.09,5.09,0,0,0,459.71,503.93Z"/></g><g id="Group_287" data-name="Group 287"><path id="Path_504" data-name="Path 504" class="cls-3" d="M410.83,472.29c3.4-4.4,9.5-5,21.05,2.06a13.25,13.25,0,0,0-1.28,8.14c-13.1,2.85-18.69.25-20.58-5.05A5.53,5.53,0,0,1,410.83,472.29Z"/><path id="Path_505" data-name="Path 505" class="cls-3" d="M470.22,482.44c-1.88-5.3-7.48-7.91-20.58-5.05a13.23,13.23,0,0,1-1.28,8.13c11.55,7.07,17.65,6.46,21.05,2.06A5.48,5.48,0,0,0,470.22,482.44Z"/></g><g id="Group_288" data-name="Group 288"><path id="Path_506" data-name="Path 506" class="cls-3" d="M414.25,496.17c-.57-5.63,3.32-10.56,16.28-14.09a12.75,12.75,0,0,0,4.6,6.69c-7.33,11.7-13.05,14-18,11.63A5.26,5.26,0,0,1,414.25,496.17Z"/><path id="Path_507" data-name="Path 507" class="cls-3" d="M463.1,459.48c-4.92-2.36-10.64-.07-18,11.63a12.75,12.75,0,0,1,4.6,6.69c13-3.53,16.85-8.46,16.28-14.09A5.26,5.26,0,0,0,463.1,459.48Z"/></g><ellipse id="Ellipse_143" data-name="Ellipse 143" class="cls-4" cx="440.12" cy="479.94" rx="9.84" ry="10.28"/><ellipse id="Ellipse_144" data-name="Ellipse 144" class="cls-4" cx="440.12" cy="479.94" rx="6.88" ry="7.18"/></g><g id="Group_294" data-name="Group 294"><g id="Group_290" data-name="Group 290"><path id="Path_508" data-name="Path 508" class="cls-4" d="M457.91,604c4.21,3.56,4.79,9.92-2,22a11.7,11.7,0,0,0-7.79-1.34c-2.73-13.69-.24-19.52,4.84-21.5A4.91,4.91,0,0,1,457.91,604Z"/><path id="Path_509" data-name="Path 509" class="cls-4" d="M448.19,666.05c5.08-2,7.58-7.81,4.84-21.5a11.75,11.75,0,0,1-7.79-1.33c-6.76,12.06-6.18,18.43-2,22A4.89,4.89,0,0,0,448.19,666.05Z"/></g><g id="Group_291" data-name="Group 291"><path id="Path_510" data-name="Path 510" class="cls-4" d="M435.06,607.58c5.38-.6,10.11,3.48,13.49,17a12.21,12.21,0,0,0-6.41,4.82c-11.2-7.66-13.39-13.63-11.14-18.77A5.11,5.11,0,0,1,435.06,607.58Z"/><path id="Path_511" data-name="Path 511" class="cls-4" d="M470.18,658.61c2.25-5.14.06-11.11-11.14-18.77a12.21,12.21,0,0,1-6.4,4.81c3.38,13.53,8.1,17.6,13.49,17A5.1,5.1,0,0,0,470.18,658.61Z"/></g><g id="Group_292" data-name="Group 292"><path id="Path_512" data-name="Path 512" class="cls-4" d="M421.3,627c3.4-4.4,9.5-5,21.05,2.06a13.25,13.25,0,0,0-1.28,8.14c-13.1,2.85-18.7.26-20.58-5A5.5,5.5,0,0,1,421.3,627Z"/><path id="Path_513" data-name="Path 513" class="cls-4" d="M480.69,637.12c-1.89-5.3-7.48-7.91-20.58-5a13.22,13.22,0,0,1-1.28,8.13c11.55,7.07,17.64,6.46,21.05,2.06A5.48,5.48,0,0,0,480.69,637.12Z"/></g><g id="Group_293" data-name="Group 293"><path id="Path_514" data-name="Path 514" class="cls-4" d="M424.71,650.84c-.58-5.62,3.32-10.55,16.28-14.08a12.75,12.75,0,0,0,4.6,6.69c-7.33,11.69-13,14-18,11.63A5.29,5.29,0,0,1,424.71,650.84Z"/><path id="Path_515" data-name="Path 515" class="cls-4" d="M473.56,614.17c-4.92-2.36-10.63-.08-18,11.62a12.71,12.71,0,0,1,4.61,6.69c12.95-3.53,16.85-8.46,16.28-14.08A5.29,5.29,0,0,0,473.56,614.17Z"/></g><ellipse id="Ellipse_145" data-name="Ellipse 145" class="cls-3" cx="450.59" cy="634.62" rx="9.84" ry="10.28"/><ellipse id="Ellipse_146" data-name="Ellipse 146" class="cls-3" cx="450.59" cy="634.62" rx="6.88" ry="7.18"/></g><g id="Group_299" data-name="Group 299"><g id="Group_295" data-name="Group 295"><path id="Path_516" data-name="Path 516" class="cls-5" d="M508,480.57c4.21,3.56,4.79,9.92-2,22a11.82,11.82,0,0,0-7.79-1.34c-2.74-13.68-.24-19.52,4.83-21.49A4.9,4.9,0,0,1,508,480.57Z"/><path id="Path_517" data-name="Path 517" class="cls-5" d="M498.29,542.59c5.08-2,7.57-7.81,4.84-21.49a11.73,11.73,0,0,1-7.79-1.33c-6.77,12.06-6.19,18.42-2,22A4.91,4.91,0,0,0,498.29,542.59Z"/></g><g id="Group_296" data-name="Group 296"><path id="Path_518" data-name="Path 518" class="cls-5" d="M485.15,484.13c5.38-.6,10.1,3.47,13.48,17a12.27,12.27,0,0,0-6.41,4.81c-11.2-7.66-13.38-13.63-11.13-18.77A5.1,5.1,0,0,1,485.15,484.13Z"/><path id="Path_519" data-name="Path 519" class="cls-5" d="M520.27,535.15c2.26-5.14.07-11.11-11.13-18.77a12.29,12.29,0,0,1-6.41,4.82c3.38,13.52,8.1,17.6,13.49,17A5.13,5.13,0,0,0,520.27,535.15Z"/></g><g id="Group_297" data-name="Group 297"><path id="Path_520" data-name="Path 520" class="cls-5" d="M471.39,503.52c3.4-4.4,9.5-5,21.05,2.06a13.21,13.21,0,0,0-1.28,8.13c-13.11,2.86-18.7.25-20.58-5.05A5.48,5.48,0,0,1,471.39,503.52Z"/><path id="Path_521" data-name="Path 521" class="cls-5" d="M530.77,513.66c-1.88-5.3-7.47-7.9-20.57-5a13.33,13.33,0,0,1-1.28,8.14c11.54,7.06,17.64,6.45,21,2.06A5.48,5.48,0,0,0,530.77,513.66Z"/></g><g id="Group_298" data-name="Group 298"><path id="Path_522" data-name="Path 522" class="cls-5" d="M474.79,527.39c-.57-5.63,3.33-10.56,16.28-14.09a12.82,12.82,0,0,0,4.61,6.69c-7.34,11.7-13.05,14-18,11.63A5.32,5.32,0,0,1,474.79,527.39Z"/><path id="Path_523" data-name="Path 523" class="cls-5" d="M523.66,490.71c-4.92-2.36-10.64-.07-18,11.62a12.7,12.7,0,0,1,4.61,6.7c12.95-3.54,16.85-8.47,16.28-14.09A5.3,5.3,0,0,0,523.66,490.71Z"/></g><ellipse id="Ellipse_147" data-name="Ellipse 147" class="cls-6" cx="500.68" cy="511.16" rx="9.84" ry="10.28"/><ellipse id="Ellipse_148" data-name="Ellipse 148" class="cls-6" cx="500.68" cy="511.16" rx="6.88" ry="7.18"/></g><g id="Group_304" data-name="Group 304"><g id="Group_300" data-name="Group 300"><path id="Path_524" data-name="Path 524" class="cls-5" d="M385.45,613.37c4.21,3.55,4.8,9.91-2,22a11.74,11.74,0,0,0-7.79-1.33c-2.73-13.69-.24-19.53,4.84-21.5A4.87,4.87,0,0,1,385.45,613.37Z"/><path id="Path_525" data-name="Path 525" class="cls-5" d="M375.74,675.38c5.08-2,7.57-7.8,4.84-21.5a11.74,11.74,0,0,1-7.79-1.33c-6.77,12.07-6.19,18.43-2,22A4.89,4.89,0,0,0,375.74,675.38Z"/></g><g id="Group_301" data-name="Group 301"><path id="Path_526" data-name="Path 526" class="cls-5" d="M362.6,616.92c5.38-.6,10.11,3.47,13.49,17a12.19,12.19,0,0,0-6.41,4.81c-11.2-7.66-13.39-13.63-11.14-18.77A5.1,5.1,0,0,1,362.6,616.92Z"/><path id="Path_527" data-name="Path 527" class="cls-5" d="M397.72,668c2.25-5.14.06-11.12-11.14-18.78a12.21,12.21,0,0,1-6.41,4.82c3.39,13.52,8.11,17.6,13.49,17A5.12,5.12,0,0,0,397.72,668Z"/></g><g id="Group_302" data-name="Group 302"><path id="Path_528" data-name="Path 528" class="cls-5" d="M348.84,636.31c3.4-4.4,9.5-5,21.05,2.06a13.21,13.21,0,0,0-1.28,8.13c-13.1,2.86-18.7.26-20.58-5A5.48,5.48,0,0,1,348.84,636.31Z"/><path id="Path_529" data-name="Path 529" class="cls-5" d="M408.23,646.45c-1.89-5.3-7.48-7.9-20.58-5.05a13.25,13.25,0,0,1-1.28,8.14c11.55,7.06,17.64,6.46,21.05,2.06A5.53,5.53,0,0,0,408.23,646.45Z"/></g><g id="Group_303" data-name="Group 303"><path id="Path_530" data-name="Path 530" class="cls-5" d="M352.24,660.18c-.57-5.62,3.33-10.55,16.28-14.09a12.82,12.82,0,0,0,4.61,6.69c-7.33,11.7-13.05,14-18,11.62A5.28,5.28,0,0,1,352.24,660.18Z"/><path id="Path_531" data-name="Path 531" class="cls-5" d="M401.1,623.5c-4.92-2.36-10.63-.07-18,11.62a12.7,12.7,0,0,1,4.61,6.7c12.95-3.54,16.85-8.47,16.28-14.09A5.29,5.29,0,0,0,401.1,623.5Z"/></g><ellipse id="Ellipse_149" data-name="Ellipse 149" class="cls-6" cx="378.13" cy="643.95" rx="9.84" ry="10.28"/><ellipse id="Ellipse_150" data-name="Ellipse 150" class="cls-6" cx="378.13" cy="643.95" rx="6.88" ry="7.18"/></g><g id="Group_309" data-name="Group 309"><g id="Group_305" data-name="Group 305"><path id="Path_532" data-name="Path 532" class="cls-6" d="M504,679c4.21,3.56,4.79,9.92-2,22a11.71,11.71,0,0,0-7.78-1.33c-2.74-13.68-.24-19.52,4.83-21.49A4.91,4.91,0,0,1,504,679Z"/><path id="Path_533" data-name="Path 533" class="cls-6" d="M494.32,741c5.07-2,7.57-7.81,4.84-21.5a11.73,11.73,0,0,1-7.79-1.33c-6.77,12.06-6.19,18.43-2,22A4.91,4.91,0,0,0,494.32,741Z"/></g><g id="Group_306" data-name="Group 306"><path id="Path_534" data-name="Path 534" class="cls-6" d="M481.17,682.52c5.39-.6,10.11,3.48,13.49,17a12.29,12.29,0,0,0-6.41,4.82c-11.2-7.66-13.38-13.64-11.13-18.78A5.12,5.12,0,0,1,481.17,682.52Z"/><path id="Path_535" data-name="Path 535" class="cls-6" d="M516.29,733.55c2.26-5.14.07-11.11-11.13-18.77a12.27,12.27,0,0,1-6.41,4.81c3.38,13.53,8.1,17.6,13.49,17A5.09,5.09,0,0,0,516.29,733.55Z"/></g><g id="Group_307" data-name="Group 307"><path id="Path_536" data-name="Path 536" class="cls-6" d="M467.41,701.92c3.4-4.4,9.5-5,21,2.06a13.21,13.21,0,0,0-1.27,8.13c-13.11,2.85-18.7.25-20.58-5.05A5.48,5.48,0,0,1,467.41,701.92Z"/><path id="Path_537" data-name="Path 537" class="cls-6" d="M526.8,712.06c-1.89-5.3-7.48-7.91-20.58-5a13.23,13.23,0,0,1-1.28,8.13c11.55,7.07,17.64,6.46,21.05,2.06A5.51,5.51,0,0,0,526.8,712.06Z"/></g><g id="Group_308" data-name="Group 308"><path id="Path_538" data-name="Path 538" class="cls-6" d="M470.82,725.79c-.57-5.63,3.33-10.56,16.28-14.09a12.71,12.71,0,0,0,4.61,6.69c-7.34,11.7-13.06,14-18,11.63A5.33,5.33,0,0,1,470.82,725.79Z"/><path id="Path_539" data-name="Path 539" class="cls-6" d="M519.68,689.11c-4.92-2.36-10.64-.08-18,11.62a12.75,12.75,0,0,1,4.6,6.69c13-3.53,16.86-8.46,16.28-14.09A5.26,5.26,0,0,0,519.68,689.11Z"/></g><ellipse id="Ellipse_151" data-name="Ellipse 151" class="cls-5" cx="496.71" cy="709.56" rx="9.84" ry="10.28"/><ellipse id="Ellipse_152" data-name="Ellipse 152" class="cls-5" cx="496.7" cy="709.56" rx="6.88" ry="7.18"/></g><g id="Group_315" data-name="Group 315"><ellipse id="Ellipse_153" data-name="Ellipse 153" class="cls-4" cx="447.02" cy="757.11" rx="5.51" ry="5.76"/><g id="Group_314" data-name="Group 314"><g id="Group_310" data-name="Group 310"><path id="Path_540" data-name="Path 540" class="cls-3" d="M451.12,740c2.36,2,2.69,5.56-1.11,12.32a6.61,6.61,0,0,0-4.36-.75c-1.54-7.66-.13-10.94,2.71-12A2.74,2.74,0,0,1,451.12,740Z"/><path id="Path_541" data-name="Path 541" class="cls-3" d="M445.68,774.72c2.84-1.1,4.24-4.37,2.71-12a6.59,6.59,0,0,1-4.37-.75c-3.79,6.76-3.46,10.33-1.11,12.32A2.76,2.76,0,0,0,445.68,774.72Z"/></g><g id="Group_311" data-name="Group 311"><path id="Path_542" data-name="Path 542" class="cls-3" d="M438.31,742c3-.33,5.66,1.95,7.56,9.53a6.82,6.82,0,0,0-3.59,2.7c-6.27-4.29-7.5-7.64-6.24-10.52A2.88,2.88,0,0,1,438.31,742Z"/><path id="Path_543" data-name="Path 543" class="cls-3" d="M458,770.56c1.27-2.88,0-6.23-6.24-10.52a6.79,6.79,0,0,1-3.59,2.7c1.9,7.58,4.54,9.85,7.56,9.53A2.86,2.86,0,0,0,458,770.56Z"/></g><g id="Group_312" data-name="Group 312"><path id="Path_544" data-name="Path 544" class="cls-3" d="M430.6,752.83c1.91-2.47,5.33-2.81,11.8,1.15a7.41,7.41,0,0,0-.71,4.56c-7.35,1.6-10.48.14-11.53-2.83A3.06,3.06,0,0,1,430.6,752.83Z"/><path id="Path_545" data-name="Path 545" class="cls-3" d="M463.88,758.51c-1.05-3-4.19-4.43-11.53-2.83a7.49,7.49,0,0,1-.71,4.56c6.47,4,9.88,3.62,11.79,1.15A3.09,3.09,0,0,0,463.88,758.51Z"/></g><g id="Group_313" data-name="Group 313"><path id="Path_546" data-name="Path 546" class="cls-3" d="M432.51,766.2c-.32-3.15,1.86-5.91,9.12-7.89a7.16,7.16,0,0,0,2.58,3.75c-4.11,6.55-7.31,7.84-10.07,6.52A3,3,0,0,1,432.51,766.2Z"/><path id="Path_547" data-name="Path 547" class="cls-3" d="M459.89,745.65c-2.76-1.32-6,0-10.07,6.51a7.17,7.17,0,0,1,2.58,3.76c7.26-2,9.44-4.75,9.12-7.9A2.93,2.93,0,0,0,459.89,745.65Z"/></g><ellipse id="Ellipse_154" data-name="Ellipse 154" class="cls-4" cx="447.02" cy="757.11" rx="3.86" ry="4.03"/></g></g><g id="Group_321" data-name="Group 321"><ellipse id="Ellipse_155" data-name="Ellipse 155" class="cls-4" cx="354.67" cy="589.27" rx="5.51" ry="5.76"/><g id="Group_320" data-name="Group 320"><g id="Group_316" data-name="Group 316"><path id="Path_548" data-name="Path 548" class="cls-3" d="M358.77,572.14c2.36,2,2.69,5.55-1.1,12.32a6.59,6.59,0,0,0-4.37-.75c-1.53-7.67-.12-10.94,2.71-12A2.74,2.74,0,0,1,358.77,572.14Z"/><path id="Path_549" data-name="Path 549" class="cls-3" d="M353.33,606.89c2.84-1.1,4.24-4.38,2.71-12a6.59,6.59,0,0,1-4.37-.74c-3.79,6.76-3.46,10.33-1.1,12.32A2.74,2.74,0,0,0,353.33,606.89Z"/></g><g id="Group_317" data-name="Group 317"><path id="Path_550" data-name="Path 550" class="cls-3" d="M346,574.13c3-.34,5.66,1.94,7.55,9.52a6.86,6.86,0,0,0-3.59,2.7c-6.27-4.29-7.5-7.64-6.23-10.52A2.83,2.83,0,0,1,346,574.13Z"/><path id="Path_551" data-name="Path 551" class="cls-3" d="M365.65,602.72c1.26-2.88,0-6.23-6.24-10.52a6.82,6.82,0,0,1-3.59,2.7c1.9,7.58,4.54,9.86,7.56,9.53A2.88,2.88,0,0,0,365.65,602.72Z"/></g><g id="Group_318" data-name="Group 318"><path id="Path_552" data-name="Path 552" class="cls-3" d="M338.26,585c1.91-2.46,5.32-2.81,11.79,1.15a7.49,7.49,0,0,0-.71,4.56c-7.34,1.6-10.48.14-11.53-2.83A3,3,0,0,1,338.26,585Z"/><path id="Path_553" data-name="Path 553" class="cls-3" d="M371.54,590.68c-1.06-3-4.19-4.43-11.54-2.83a7.35,7.35,0,0,1-.71,4.56c6.47,4,9.89,3.62,11.79,1.15A3.07,3.07,0,0,0,371.54,590.68Z"/></g><g id="Group_319" data-name="Group 319"><path id="Path_554" data-name="Path 554" class="cls-3" d="M340.17,598.37c-.32-3.15,1.86-5.92,9.12-7.9a7.2,7.2,0,0,0,2.58,3.75c-4.11,6.55-7.31,7.84-10.07,6.51A3,3,0,0,1,340.17,598.37Z"/><path id="Path_555" data-name="Path 555" class="cls-3" d="M367.54,577.81c-2.75-1.32-6,0-10.07,6.52a7,7,0,0,1,2.58,3.75c7.26-2,9.44-4.75,9.13-7.9A3,3,0,0,0,367.54,577.81Z"/></g><ellipse id="Ellipse_156" data-name="Ellipse 156" class="cls-4" cx="354.67" cy="589.27" rx="3.86" ry="4.03"/></g></g><g id="Group_327" data-name="Group 327"><ellipse id="Ellipse_157" data-name="Ellipse 157" class="cls-5" cx="466.53" cy="560.8" rx="5.51" ry="5.76"/><g id="Group_326" data-name="Group 326"><g id="Group_322" data-name="Group 322"><path id="Path_556" data-name="Path 556" class="cls-6" d="M470.63,543.66c2.36,2,2.69,5.56-1.1,12.32a6.59,6.59,0,0,0-4.37-.74c-1.53-7.67-.13-11,2.71-12A2.74,2.74,0,0,1,470.63,543.66Z"/><path id="Path_557" data-name="Path 557" class="cls-6" d="M465.19,578.41c2.84-1.1,4.24-4.37,2.71-12a6.61,6.61,0,0,1-4.36-.74c-3.79,6.75-3.47,10.32-1.11,12.31A2.74,2.74,0,0,0,465.19,578.41Z"/></g><g id="Group_323" data-name="Group 323"><path id="Path_558" data-name="Path 558" class="cls-6" d="M457.83,545.65c3-.33,5.66,2,7.56,9.53a6.82,6.82,0,0,0-3.59,2.7c-6.27-4.29-7.5-7.64-6.24-10.52A2.86,2.86,0,0,1,457.83,545.65Z"/><path id="Path_559" data-name="Path 559" class="cls-6" d="M477.5,574.25c1.27-2.88,0-6.23-6.23-10.52a6.85,6.85,0,0,1-3.6,2.7c1.9,7.58,4.55,9.86,7.56,9.53A2.86,2.86,0,0,0,477.5,574.25Z"/></g><g id="Group_324" data-name="Group 324"><path id="Path_560" data-name="Path 560" class="cls-6" d="M450.12,556.52c1.91-2.47,5.32-2.81,11.8,1.15a7.41,7.41,0,0,0-.72,4.56c-7.34,1.6-10.47.14-11.53-2.83A3.07,3.07,0,0,1,450.12,556.52Z"/><path id="Path_561" data-name="Path 561" class="cls-6" d="M483.39,562.2c-1.05-3-4.18-4.43-11.53-2.83a7.35,7.35,0,0,1-.71,4.56c6.47,4,9.89,3.62,11.8,1.15A3.06,3.06,0,0,0,483.39,562.2Z"/></g><g id="Group_325" data-name="Group 325"><path id="Path_562" data-name="Path 562" class="cls-6" d="M452,569.89c-.32-3.15,1.86-5.91,9.12-7.9a7.17,7.17,0,0,0,2.58,3.76c-4.11,6.55-7.31,7.83-10.07,6.51A3,3,0,0,1,452,569.89Z"/><path id="Path_563" data-name="Path 563" class="cls-6" d="M479.4,549.34c-2.75-1.32-6,0-10.07,6.51a7.16,7.16,0,0,1,2.59,3.75c7.25-2,9.44-4.74,9.12-7.89A3,3,0,0,0,479.4,549.34Z"/></g><ellipse id="Ellipse_158" data-name="Ellipse 158" class="cls-5" cx="466.53" cy="560.8" rx="3.86" ry="4.03"/></g></g><g id="Group_332" data-name="Group 332"><g id="Group_328" data-name="Group 328"><path id="Path_564" data-name="Path 564" class="cls-4" d="M396.53,588.46c-4.21-3.55-4.8-9.92,2-22a11.75,11.75,0,0,0,7.79,1.33c2.74,13.69.24,19.53-4.84,21.49A4.89,4.89,0,0,1,396.53,588.46Z"/><path id="Path_565" data-name="Path 565" class="cls-4" d="M406.24,526.45c-5.07,2-7.57,7.8-4.83,21.49a11.75,11.75,0,0,1,7.79,1.33c6.76-12.06,6.18-18.43,2-22A4.9,4.9,0,0,0,406.24,526.45Z"/></g><g id="Group_329" data-name="Group 329"><path id="Path_566" data-name="Path 566" class="cls-4" d="M419.38,584.91c-5.39.6-10.11-3.47-13.49-17a12.27,12.27,0,0,0,6.41-4.81c11.2,7.66,13.38,13.63,11.13,18.77A5.1,5.1,0,0,1,419.38,584.91Z"/><path id="Path_567" data-name="Path 567" class="cls-4" d="M384.26,533.88C382,539,384.19,545,395.39,552.65a12.27,12.27,0,0,1,6.41-4.81c-3.38-13.53-8.1-17.6-13.49-17A5.09,5.09,0,0,0,384.26,533.88Z"/></g><g id="Group_330" data-name="Group 330"><path id="Path_568" data-name="Path 568" class="cls-4" d="M433.14,565.52c-3.4,4.4-9.5,5-21.05-2.06a13.25,13.25,0,0,0,1.28-8.14c13.1-2.85,18.7-.24,20.57,5.06A5.48,5.48,0,0,1,433.14,565.52Z"/><path id="Path_569" data-name="Path 569" class="cls-4" d="M373.75,555.37c1.88,5.3,7.48,7.91,20.58,5.06a13.25,13.25,0,0,1,1.28-8.14c-11.55-7.07-17.65-6.46-21.05-2.06A5.48,5.48,0,0,0,373.75,555.37Z"/></g><g id="Group_331" data-name="Group 331"><path id="Path_570" data-name="Path 570" class="cls-4" d="M429.73,541.65c.57,5.62-3.33,10.56-16.28,14.09a12.75,12.75,0,0,0-4.6-6.69c7.33-11.7,13-14,18-11.63A5.28,5.28,0,0,1,429.73,541.65Z"/><path id="Path_571" data-name="Path 571" class="cls-4" d="M380.87,578.33c4.92,2.36,10.64.07,18-11.62a12.81,12.81,0,0,1-4.61-6.7c-13,3.54-16.84,8.47-16.28,14.09A5.29,5.29,0,0,0,380.87,578.33Z"/></g><ellipse id="Ellipse_159" data-name="Ellipse 159" class="cls-7" cx="403.84" cy="557.88" rx="9.84" ry="10.28"/><ellipse id="Ellipse_160" data-name="Ellipse 160" class="cls-7" cx="403.84" cy="557.88" rx="6.88" ry="7.18"/></g><g id="Group_337" data-name="Group 337"><g id="Group_333" data-name="Group 333"><path id="Path_572" data-name="Path 572" class="cls-7" d="M405.62,740.15c-4.21-3.56-4.79-9.92,2-22a11.73,11.73,0,0,0,7.79,1.33c2.73,13.68.23,19.52-4.84,21.49A4.91,4.91,0,0,1,405.62,740.15Z"/><path id="Path_573" data-name="Path 573" class="cls-7" d="M415.34,678.13c-5.08,2-7.57,7.81-4.84,21.49a11.69,11.69,0,0,1,7.79,1.34c6.77-12.07,6.18-18.43,2-22A4.89,4.89,0,0,0,415.34,678.13Z"/></g><g id="Group_334" data-name="Group 334"><path id="Path_574" data-name="Path 574" class="cls-7" d="M428.48,736.59c-5.39.6-10.11-3.47-13.49-17a12.23,12.23,0,0,0,6.41-4.81c11.2,7.66,13.39,13.63,11.13,18.77A5.07,5.07,0,0,1,428.48,736.59Z"/><path id="Path_575" data-name="Path 575" class="cls-7" d="M393.36,685.57c-2.26,5.14-.07,11.11,11.13,18.77a12.25,12.25,0,0,1,6.41-4.82c-3.38-13.52-8.11-17.59-13.49-17A5.1,5.1,0,0,0,393.36,685.57Z"/></g><g id="Group_335" data-name="Group 335"><path id="Path_576" data-name="Path 576" class="cls-7" d="M442.24,717.21c-3.4,4.4-9.5,5-21.05-2.06a13.25,13.25,0,0,0,1.28-8.14c13.1-2.86,18.7-.25,20.58,5A5.53,5.53,0,0,1,442.24,717.21Z"/><path id="Path_577" data-name="Path 577" class="cls-7" d="M382.85,707.06c1.88,5.3,7.47,7.9,20.58,5.05a13.25,13.25,0,0,1,1.28-8.14c-11.55-7.06-17.65-6.45-21-2.06A5.5,5.5,0,0,0,382.85,707.06Z"/></g><g id="Group_336" data-name="Group 336"><path id="Path_578" data-name="Path 578" class="cls-7" d="M438.84,693.34c.57,5.62-3.33,10.55-16.28,14.08a12.71,12.71,0,0,0-4.61-6.69c7.34-11.7,13.05-14,18-11.62A5.29,5.29,0,0,1,438.84,693.34Z"/><path id="Path_579" data-name="Path 579" class="cls-7" d="M390,730c4.92,2.35,10.64.07,18-11.63a12.75,12.75,0,0,1-4.6-6.69c-13,3.53-16.85,8.46-16.28,14.09A5.29,5.29,0,0,0,390,730Z"/></g><ellipse id="Ellipse_161" data-name="Ellipse 161" class="cls-4" cx="412.94" cy="709.56" rx="9.84" ry="10.28"/><ellipse id="Ellipse_162" data-name="Ellipse 162" class="cls-4" cx="412.94" cy="709.56" rx="6.88" ry="7.18"/></g><g id="Group_343" data-name="Group 343"><ellipse id="Ellipse_163" data-name="Ellipse 163" class="cls-4" cx="517.72" cy="601.5" rx="5.51" ry="5.76"/><g id="Group_342" data-name="Group 342"><g id="Group_338" data-name="Group 338"><path id="Path_580" data-name="Path 580" class="cls-7" d="M513.62,618.64c-2.36-2-2.69-5.56,1.1-12.32a6.59,6.59,0,0,0,4.37.75c1.53,7.67.13,10.94-2.71,12A2.74,2.74,0,0,1,513.62,618.64Z"/><path id="Path_581" data-name="Path 581" class="cls-7" d="M519.06,583.89c-2.84,1.1-4.24,4.38-2.71,12.05a6.59,6.59,0,0,1,4.37.74c3.79-6.76,3.46-10.32,1.1-12.32A2.74,2.74,0,0,0,519.06,583.89Z"/></g><g id="Group_339" data-name="Group 339"><path id="Path_582" data-name="Path 582" class="cls-7" d="M526.43,616.66c-3,.33-5.67-1.95-7.56-9.53a6.86,6.86,0,0,0,3.59-2.7c6.27,4.29,7.5,7.64,6.24,10.52A2.88,2.88,0,0,1,526.43,616.66Z"/><path id="Path_583" data-name="Path 583" class="cls-7" d="M506.75,588.06c-1.27,2.88,0,6.23,6.24,10.52a6.82,6.82,0,0,1,3.59-2.7c-1.9-7.58-4.55-9.86-7.56-9.53A2.86,2.86,0,0,0,506.75,588.06Z"/></g><g id="Group_340" data-name="Group 340"><path id="Path_584" data-name="Path 584" class="cls-7" d="M534.13,605.79c-1.9,2.46-5.32,2.8-11.8-1.15a7.43,7.43,0,0,0,.72-4.56c7.34-1.6,10.47-.14,11.53,2.83A3,3,0,0,1,534.13,605.79Z"/><path id="Path_585" data-name="Path 585" class="cls-7" d="M500.86,600.1c1.06,3,4.19,4.43,11.53,2.83a7.39,7.39,0,0,1,.72-4.55c-6.47-4-9.89-3.62-11.8-1.16A3.1,3.1,0,0,0,500.86,600.1Z"/></g><g id="Group_341" data-name="Group 341"><path id="Path_586" data-name="Path 586" class="cls-7" d="M532.23,592.41c.32,3.15-1.87,5.92-9.13,7.9a7,7,0,0,0-2.58-3.75c4.11-6.56,7.32-7.84,10.07-6.52A3,3,0,0,1,532.23,592.41Z"/><path id="Path_587" data-name="Path 587" class="cls-7" d="M504.85,613c2.75,1.32,6,0,10.07-6.52a7.1,7.1,0,0,1-2.58-3.75c-7.26,2-9.44,4.75-9.12,7.9A3,3,0,0,0,504.85,613Z"/></g><ellipse id="Ellipse_164" data-name="Ellipse 164" class="cls-4" cx="517.72" cy="601.51" rx="3.86" ry="4.03"/></g></g><g id="Group_349" data-name="Group 349"><ellipse id="Ellipse_165" data-name="Ellipse 165" class="cls-4" cx="501.73" cy="435.14" rx="5.51" ry="5.76"/><g id="Group_348" data-name="Group 348"><g id="Group_344" data-name="Group 344"><path id="Path_588" data-name="Path 588" class="cls-7" d="M497.63,452.28c-2.36-2-2.69-5.56,1.11-12.32a6.55,6.55,0,0,0,4.36.74c1.54,7.67.13,10.94-2.71,12.05A2.74,2.74,0,0,1,497.63,452.28Z"/><path id="Path_589" data-name="Path 589" class="cls-7" d="M503.07,417.52c-2.85,1.1-4.24,4.38-2.71,12.05a6.56,6.56,0,0,1,4.36.74c3.79-6.76,3.47-10.32,1.11-12.31A2.75,2.75,0,0,0,503.07,417.52Z"/></g><g id="Group_345" data-name="Group 345"><path id="Path_590" data-name="Path 590" class="cls-7" d="M510.43,450.29c-3,.33-5.66-2-7.56-9.53a6.82,6.82,0,0,0,3.59-2.7c6.27,4.29,7.5,7.64,6.24,10.52A2.86,2.86,0,0,1,510.43,450.29Z"/><path id="Path_591" data-name="Path 591" class="cls-7" d="M490.75,421.69c-1.26,2.88,0,6.23,6.24,10.52a6.82,6.82,0,0,1,3.59-2.7c-1.89-7.58-4.54-9.85-7.56-9.53A2.86,2.86,0,0,0,490.75,421.69Z"/></g><g id="Group_346" data-name="Group 346"><path id="Path_592" data-name="Path 592" class="cls-7" d="M518.14,439.42c-1.91,2.47-5.32,2.8-11.8-1.15a7.42,7.42,0,0,0,.72-4.56c7.34-1.6,10.47-.14,11.53,2.83A3.09,3.09,0,0,1,518.14,439.42Z"/><path id="Path_593" data-name="Path 593" class="cls-7" d="M484.86,433.73c1.06,3,4.19,4.44,11.54,2.84a7.34,7.34,0,0,1,.71-4.56c-6.47-4-9.89-3.62-11.8-1.15A3.08,3.08,0,0,0,484.86,433.73Z"/></g><g id="Group_347" data-name="Group 347"><path id="Path_594" data-name="Path 594" class="cls-7" d="M516.23,426c.32,3.16-1.86,5.92-9.12,7.9a7.1,7.1,0,0,0-2.58-3.75c4.11-6.56,7.31-7.84,10.07-6.52A2.94,2.94,0,0,1,516.23,426Z"/><path id="Path_595" data-name="Path 595" class="cls-7" d="M488.85,446.6c2.76,1.32,6,0,10.07-6.51a7.22,7.22,0,0,1-2.58-3.76c-7.25,2-9.44,4.75-9.12,7.9A3,3,0,0,0,488.85,446.6Z"/></g><ellipse id="Ellipse_166" data-name="Ellipse 166" class="cls-4" cx="501.73" cy="435.14" rx="3.86" ry="4.03"/></g></g></g><g id="Group_351" data-name="Group 351"><path id="Path_596" data-name="Path 596" class="cls-8" d="M354.24,289.27a7.27,7.27,0,0,0,10.26-.75h0a7.28,7.28,0,0,0-.75-10.27h0c-3.05-2.63-16.43-6.38-19.72-7.4C345.78,273.66,351.2,286.65,354.24,289.27Z"/><path id="Path_597" data-name="Path 597" class="cls-8" d="M368.11,265a7.27,7.27,0,0,0,10.26-.75h0a7.28,7.28,0,0,0-.75-10.27h0c-3-2.62-16.43-6.38-19.71-7.4C359.65,249.34,365.06,262.33,368.11,265Z"/><path id="Path_598" data-name="Path 598" class="cls-8" d="M389.84,289a7.29,7.29,0,0,0,10.28.66h0a7.3,7.3,0,0,0,.65-10.28c-2.66-3-15.41-8.56-18.52-10C383.59,272.36,387.19,286,389.84,289Z"/><path id="Path_599" data-name="Path 599" class="cls-8" d="M377.36,312.93a7.28,7.28,0,0,0,11-9.51l-.1-.12c-2.66-3-15.4-8.56-18.52-10C371.1,296.3,374.7,309.91,377.36,312.93Z"/><path id="Path_600" data-name="Path 600" class="cls-8" d="M386.7,243.26a7.28,7.28,0,1,0,9.51-11c-3-2.63-16.43-6.38-19.71-7.4C378.24,227.65,383.66,240.64,386.7,243.26Z"/><path id="Path_601" data-name="Path 601" class="cls-8" d="M409.65,270.15A7.28,7.28,0,0,0,421,261.07c-2.51-3.14-15-9.29-18-10.89C404.19,253.25,407.14,267,409.65,270.15Z"/><path id="Path_602" data-name="Path 602" class="cls-6" d="M431.5,299.87a7.28,7.28,0,0,0,10,2.32h0a7.28,7.28,0,0,0,2.32-10,2.9,2.9,0,0,0-.19-.29c-2.21-3.36-14.06-10.63-16.94-12.5C427.63,282.54,429.3,296.51,431.5,299.87Z"/><path id="Path_603" data-name="Path 603" class="cls-6" d="M409.47,315.22a7.28,7.28,0,0,0,10,2.24h0a7.28,7.28,0,0,0,2.23-10l-.12-.19c-2.21-3.35-14.06-10.63-16.94-12.5C405.6,297.89,407.26,311.87,409.47,315.22Z"/><path id="Path_604" data-name="Path 604" class="cls-6" d="M426.14,343.91a7.28,7.28,0,1,0,12.66-7.18l0-.08c-2-3.49-13.4-11.45-16.17-13.5C423.31,326.38,424.14,340.42,426.14,343.91Z"/><path id="Path_605" data-name="Path 605" class="cls-6" d="M449.66,332.05a7.28,7.28,0,0,0,9.54,3.87h0a7.29,7.29,0,0,0,3.87-9.54h0c-1.56-3.7-11.9-13-14.4-15.36C449,314.31,448.1,328.35,449.66,332.05Z"/><path id="Path_606" data-name="Path 606" class="cls-6" d="M395.4,341.21a7.28,7.28,0,0,0,12.43-7.58c-2.09-3.43-13.68-11.1-16.5-13.08C392.14,323.75,393.32,337.78,395.4,341.21Z"/><path id="Path_607" data-name="Path 607" class="cls-9" d="M407.82,371.69a7.28,7.28,0,0,0,13.67-5c-1.38-3.78-11.26-13.57-13.63-16.05C408,353.94,406.44,367.92,407.82,371.69Z"/><path id="Path_608" data-name="Path 608" class="cls-9" d="M437.14,374.11a7.28,7.28,0,0,0,13.67-5c-1.38-3.77-11.26-13.56-13.63-16.05C437.34,356.35,435.76,370.33,437.14,374.11Z"/><path id="Path_609" data-name="Path 609" class="cls-9" d="M465,365.5a7.28,7.28,0,0,0,9.33,4.33h0a7.27,7.27,0,0,0,4.33-9.34h0c-1.38-3.77-11.26-13.56-13.63-16.05C465.17,347.74,463.59,361.72,465,365.5Z"/><path id="Path_610" data-name="Path 610" class="cls-5" d="M475.74,401.26a7.29,7.29,0,0,0,8.85,5.25h0a7.28,7.28,0,0,0,5.26-8.85h0c-1-3.9-9.83-14.63-11.94-17.34C477.74,383.61,474.75,397.36,475.74,401.26Z"/><path id="Path_611" data-name="Path 611" class="cls-5" d="M446,405.29a7.27,7.27,0,0,0,8.85,5.25h0a7.27,7.27,0,0,0,5.25-8.85h0c-1-3.89-9.83-14.63-11.94-17.34C448,387.64,445,401.4,446,405.29Z"/><path id="Path_612" data-name="Path 612" class="cls-5" d="M450.88,438.49a7.28,7.28,0,0,0,8.23,6.19h0a7.28,7.28,0,0,0,6.18-8.23h0c-.56-4-8.18-15.62-10-18.54C454.77,421.17,450.32,434.51,450.88,438.49Z"/><path id="Path_613" data-name="Path 613" class="cls-5" d="M418.68,437A7.29,7.29,0,0,0,426,444.2h0a7.29,7.29,0,0,0,7.24-7.32h0c0-4-6-16.58-7.38-19.72C424.88,420.32,418.66,432.93,418.68,437Z"/><path id="Path_614" data-name="Path 614" class="cls-5" d="M481,437.63a7.29,7.29,0,0,0,8.24,6.17h0a7.27,7.27,0,0,0,6.17-8.23h0a.59.59,0,0,0,0-.14c-.6-4-8.34-15.53-10.17-18.43C484.68,420.26,480.35,433.65,481,437.63Z"/><path id="Path_615" data-name="Path 615" class="cls-9" d="M416.77,404.62a7.26,7.26,0,0,0,8.84,5.25h0a7.28,7.28,0,0,0,5.25-8.85h0c-1-3.89-9.83-14.63-11.94-17.34C418.75,387,415.77,400.73,416.77,404.62Z"/><path id="Path_616" data-name="Path 616" class="cls-10" d="M113.48,43.65c-8.34-7.54-16.14-15.79-25.11-22.46C62.31,1.8,39.21,8.94,29.33,39.79s-8.94,63-7.68,95c.47,11.86,2.57,23.22-7.24,33.58-5.9,6.22-3.67,15.2,3.44,21,37.77,30.8,75.56,61.59,113.76,91.87,3.63,2.88,10.63,4,15.2,2.81,48.34-12.91,96.5-26.48,144.72-39.84,5.91-1.63,11.86-3.1,18.24-4.76.84,7.43,1,14.26,2.61,20.72a12.49,12.49,0,0,0,6.74,7.76c1.89.67,6.24-2.27,7.86-4.68q17.44-26.12,34-52.79c1.65-2.67,2.12-7.5.77-10.12-1-1.87-6.56-3.22-8.91-2.17-9.83,4.39-19.24,9.71-28.73,14.82-2.59,1.4-4.81,4.4-7.42,4.69-39.85,4.43-79.73,8.53-122.4,13,7.22-9.12,12.79-16.29,18.49-23.33q21.41-26.4,42.93-52.68c5.25-6.36,9.22-12.66,6-21.5-.7-1.92.95-5,2.08-7.23,2.91-5.8,6.9-11.16,9.11-17.2,5.47-15,.54-28.16-13.24-36.12-17.24-10-36.54-12.54-55.74-11.42-20,1.16-35.89-3.78-50.82-17.77C134.31,25.74,131.68,26.78,113.48,43.65ZM101.41,60,42,133.05c0-19.21-1.14-35.68.35-51.91a186.8,186.8,0,0,1,8.85-40.9C54.67,29.82,61.7,27.69,70.67,34c10.74,7.56,20.19,17,30.74,26ZM249,120.69,195.5,77.29l1.35-3.87c16,2.69,32.34,4,47.86,8.41,16.76,4.7,19.63,15.06,10.62,30-1.74,2.88-3.91,5.5-6.31,8.83Z"/></g><g id="Group_352" data-name="Group 352"><path id="Path_617" data-name="Path 617" class="cls-7" d="M159.74,49.47a78.33,78.33,0,0,1-7.38-6.1Z"/><path id="Path_618" data-name="Path 618" class="cls-7" d="M159.74,49.47c12.84,9.31,26.7,12.64,43.44,11.67,19.2-1.12,38.5,1.45,55.74,11.42,13.77,8,18.71,21.16,13.23,36.12-2.21,6-6.19,11.4-9.11,17.2-1.13,2.25-2.77,5.3-2.08,7.23ZM244,81.83c-15.52-4.35-31.88-5.73-47.86-8.41l-1.35,3.87,53.52,43.4c2.4-3.33,4.58-6,6.32-8.84,9-15,6.14-25.33-10.63-30Z"/></g><path id="Path_619" data-name="Path 619" class="cls-7" d="M308.34,238.48c.84,7.43,1,14.26,2.61,20.72a12.49,12.49,0,0,0,6.74,7.76c1.89.67,6.24-2.27,7.86-4.68q17.43-26.1,34-52.79c1.65-2.68,2.12-7.51.77-10.13-1-1.86-6.56-3.21-8.91-2.16-9.83,4.38-19.24,9.71-28.73,14.82-2.59,1.4-4.81,4.4-7.42,4.69Z"/><g id="Group_353" data-name="Group 353"><path id="Path_620" data-name="Path 620" class="cls-7" d="M18.12,164.26l24.42-31.2c0-19.22-1.14-35.69.35-51.92a186.48,186.48,0,0,1,8.85-40.9C55.16,29.82,62.19,27.7,71.17,34,81.72,41.44,91,50.63,101.34,59.54L114,43.64c-8.33-7.53-16.13-15.78-25.1-22.46C62.81,1.79,39.71,8.94,29.83,39.79s-8.95,63-7.68,95c.41,10.34,2.05,20.28-4,29.53"/></g></g><g id="Group_425" data-name="Group 425"><g id="Group_421" data-name="Group 421"><g id="Group_459" data-name="Group 459"><path id="Path_621" data-name="Path 621" class="cls-2" d="M1067.22,407.4c30,5,55.77,21.9,74,46.69,32.63,44.3,33,104.37,3.11,150.6C1110.83,656.61,1046,720,959.9,791V499.86C959.9,442.72,1010.85,398.07,1067.22,407.4Z"/><path id="Path_622" data-name="Path 622" class="cls-1" d="M841.57,407.4c-30,5-55.78,21.9-74,46.69-32.63,44.3-32.95,104.37-3.11,150.6C798,656.61,862.81,720,948.88,791V499.86C948.88,442.72,897.94,398.07,841.57,407.4Z"/><g id="Group_359" data-name="Group 359"><g id="Group_355" data-name="Group 355"><path id="Path_623" data-name="Path 623" class="cls-3" d="M1043.58,742.73c-4.7-3.8-5.35-10.6,2.2-23.5,1.62,1.25,6.77,2.1,8.7,1.42,3,14.63.27,20.87-5.4,23A5.69,5.69,0,0,1,1043.58,742.73Z"/><path id="Path_624" data-name="Path 624" class="cls-3" d="M1054.43,676.44c-5.67,2.1-8.46,8.34-5.4,23,1.92-.68,7.08.17,8.7,1.42,7.55-12.89,6.9-19.7,2.2-23.5A5.64,5.64,0,0,0,1054.43,676.44Z"/></g><g id="Group_356" data-name="Group 356"><path id="Path_625" data-name="Path 625" class="cls-3" d="M1069.1,738.93c-6,.64-11.28-3.71-15.06-18.17,2-.26,6.27-3.3,7.15-5.14,12.5,8.18,15,14.57,12.43,20.06A5.67,5.67,0,0,1,1069.1,738.93Z"/><path id="Path_626" data-name="Path 626" class="cls-3" d="M1029.89,684.38c-2.52,5.5-.08,11.88,12.42,20.07.89-1.84,5.13-4.89,7.16-5.15-3.78-14.45-9-18.81-15.06-18.17A5.67,5.67,0,0,0,1029.89,684.38Z"/></g><g id="Group_357" data-name="Group 357"><path id="Path_627" data-name="Path 627" class="cls-3" d="M1084.45,718.2c-3.8,4.7-10.6,5.36-23.5-2.2,1.25-1.61,2.1-6.77,1.42-8.7,14.63-3,20.87-.26,23,5.4A5.68,5.68,0,0,1,1084.45,718.2Z"/><path id="Path_628" data-name="Path 628" class="cls-3" d="M1018.16,707.36c2.1,5.67,8.34,8.45,23,5.4-.67-1.93.17-7.09,1.42-8.7-12.89-7.56-19.7-6.9-23.5-2.2A5.66,5.66,0,0,0,1018.16,707.36Z"/></g><g id="Group_358" data-name="Group 358"><path id="Path_629" data-name="Path 629" class="cls-3" d="M1080.65,692.69c.64,6-3.72,11.28-18.17,15.06-.26-2-3.3-6.27-5.15-7.15,8.19-12.5,14.57-15,20.07-12.43A5.67,5.67,0,0,1,1080.65,692.69Z"/><path id="Path_630" data-name="Path 630" class="cls-3" d="M1026.11,731.9c5.49,2.52,11.87.07,20.06-12.43-1.84-.89-4.89-5.13-5.14-7.15-14.46,3.77-18.81,9-18.17,15.06A5.66,5.66,0,0,0,1026.11,731.9Z"/></g><circle id="Ellipse_167" data-name="Ellipse 167" class="cls-4" cx="1051.75" cy="710.03" r="10.98"/><circle id="Ellipse_168" data-name="Ellipse 168" class="cls-4" cx="1051.75" cy="710.03" r="7.68"/></g><g id="Group_364" data-name="Group 364"><g id="Group_360" data-name="Group 360"><path id="Path_631" data-name="Path 631" class="cls-4" d="M1031.9,577.39c-4.7-3.79-5.36-10.6,2.2-23.5,1.61,1.26,6.77,2.1,8.7,1.43,3,14.63.26,20.87-5.4,23A5.63,5.63,0,0,1,1031.9,577.39Z"/><path id="Path_632" data-name="Path 632" class="cls-4" d="M1042.74,511.11c-5.67,2.1-8.45,8.34-5.4,23,1.92-.67,7.08.17,8.7,1.43,7.55-12.9,6.9-19.7,2.2-23.5A5.64,5.64,0,0,0,1042.74,511.11Z"/></g><g id="Group_361" data-name="Group 361"><path id="Path_633" data-name="Path 633" class="cls-4" d="M1057.41,573.59c-6,.64-11.28-3.71-15.06-18.17,2-.25,6.27-3.3,7.15-5.14,12.5,8.19,15,14.57,12.43,20.07A5.64,5.64,0,0,1,1057.41,573.59Z"/><path id="Path_634" data-name="Path 634" class="cls-4" d="M1018.2,519.05c-2.52,5.5-.07,11.88,12.43,20.07.89-1.84,5.13-4.89,7.15-5.15-3.77-14.45-9-18.8-15.06-18.17A5.68,5.68,0,0,0,1018.2,519.05Z"/></g><g id="Group_362" data-name="Group 362"><path id="Path_635" data-name="Path 635" class="cls-4" d="M1072.77,552.87c-3.8,4.7-10.6,5.36-23.5-2.2,1.25-1.61,2.1-6.77,1.42-8.7,14.63-3.05,20.87-.27,23,5.4A5.66,5.66,0,0,1,1072.77,552.87Z"/><path id="Path_636" data-name="Path 636" class="cls-4" d="M1006.47,542c2.1,5.67,8.35,8.45,23,5.4-.68-1.92.17-7.08,1.42-8.7-12.89-7.55-19.7-6.9-23.5-2.2A5.69,5.69,0,0,0,1006.47,542Z"/></g><g id="Group_363" data-name="Group 363"><path id="Path_637" data-name="Path 637" class="cls-4" d="M1069,527.36c.64,6-3.71,11.28-18.17,15.06-.25-2-3.3-6.27-5.14-7.16,8.19-12.5,14.57-14.94,20.07-12.42A5.64,5.64,0,0,1,1069,527.36Z"/><path id="Path_638" data-name="Path 638" class="cls-4" d="M1014.42,566.56c5.5,2.52,11.88.07,20.07-12.43-1.84-.88-4.89-5.13-5.15-7.15-14.45,3.77-18.81,9-18.17,15.06A5.67,5.67,0,0,0,1014.42,566.56Z"/></g><circle id="Ellipse_169" data-name="Ellipse 169" class="cls-3" cx="1040.07" cy="544.7" r="10.98"/><circle id="Ellipse_170" data-name="Ellipse 170" class="cls-3" cx="1040.07" cy="544.7" r="7.68"/></g><g id="Group_369" data-name="Group 369"><g id="Group_365" data-name="Group 365"><path id="Path_639" data-name="Path 639" class="cls-5" d="M964.45,713.77c-4.7-3.79-5.35-10.6,2.2-23.5,1.61,1.26,6.77,2.1,8.7,1.43,3,14.62.26,20.87-5.4,23A5.69,5.69,0,0,1,964.45,713.77Z"/><path id="Path_640" data-name="Path 640" class="cls-5" d="M975.3,647.48c-5.67,2.1-8.45,8.35-5.4,23,1.92-.68,7.08.17,8.69,1.42,7.56-12.89,6.9-19.7,2.2-23.5A5.67,5.67,0,0,0,975.3,647.48Z"/></g><g id="Group_366" data-name="Group 366"><path id="Path_641" data-name="Path 641" class="cls-5" d="M990,710c-6,.64-11.28-3.71-15.05-18.17,2-.25,6.27-3.3,7.15-5.14,12.5,8.18,15,14.57,12.43,20.06A5.66,5.66,0,0,1,990,710Z"/><path id="Path_642" data-name="Path 642" class="cls-5" d="M950.75,655.43c-2.51,5.5-.07,11.88,12.43,20.07.89-1.84,5.13-4.89,7.16-5.15-3.78-14.45-9.05-18.81-15.06-18.17A5.68,5.68,0,0,0,950.75,655.43Z"/></g><g id="Group_367" data-name="Group 367"><path id="Path_643" data-name="Path 643" class="cls-5" d="M1005.32,689.25c-3.79,4.7-10.6,5.35-23.5-2.2,1.25-1.61,2.1-6.77,1.42-8.7,14.63-3.05,20.87-.27,23,5.4A5.69,5.69,0,0,1,1005.32,689.25Z"/><path id="Path_644" data-name="Path 644" class="cls-5" d="M939,678.4c2.1,5.67,8.35,8.45,23,5.4-.68-1.92.17-7.08,1.42-8.7-12.89-7.55-19.7-6.9-23.5-2.2A5.66,5.66,0,0,0,939,678.4Z"/></g><g id="Group_368" data-name="Group 368"><path id="Path_645" data-name="Path 645" class="cls-5" d="M1001.52,663.74c.64,6-3.71,11.28-18.17,15.06-.25-2-3.3-6.27-5.14-7.16,8.18-12.5,14.57-14.95,20.06-12.43A5.68,5.68,0,0,1,1001.52,663.74Z"/><path id="Path_646" data-name="Path 646" class="cls-5" d="M947,702.94c5.49,2.52,11.88.08,20.06-12.43-1.84-.88-4.89-5.13-5.14-7.15-14.46,3.78-18.81,9-18.17,15.06A5.65,5.65,0,0,0,947,702.94Z"/></g><circle id="Ellipse_171" data-name="Ellipse 171" class="cls-6" cx="972.62" cy="681.08" r="10.98"/><circle id="Ellipse_172" data-name="Ellipse 172" class="cls-6" cx="972.62" cy="681.08" r="7.68"/></g><g id="Group_374" data-name="Group 374"><g id="Group_370" data-name="Group 370"><path id="Path_647" data-name="Path 647" class="cls-5" d="M1135.85,556.38c-4.7-3.8-5.36-10.6,2.2-23.5,1.61,1.25,6.77,2.1,8.7,1.42,3,14.63.26,20.87-5.4,23A5.66,5.66,0,0,1,1135.85,556.38Z"/><path id="Path_648" data-name="Path 648" class="cls-5" d="M1146.69,490.09c-5.67,2.1-8.45,8.34-5.4,23,1.93-.68,7.09.17,8.7,1.42,7.56-12.89,6.9-19.7,2.2-23.5A5.66,5.66,0,0,0,1146.69,490.09Z"/></g><g id="Group_371" data-name="Group 371"><path id="Path_649" data-name="Path 649" class="cls-5" d="M1161.36,552.58c-6,.64-11.28-3.72-15.06-18.17,2-.26,6.27-3.3,7.15-5.15,12.5,8.19,15,14.57,12.43,20.06A5.66,5.66,0,0,1,1161.36,552.58Z"/><path id="Path_650" data-name="Path 650" class="cls-5" d="M1122.15,498c-2.52,5.5-.07,11.88,12.43,20.07.89-1.84,5.13-4.89,7.15-5.14-3.77-14.46-9-18.82-15.06-18.18A5.68,5.68,0,0,0,1122.15,498Z"/></g><g id="Group_372" data-name="Group 372"><path id="Path_651" data-name="Path 651" class="cls-5" d="M1176.71,531.85c-3.79,4.7-10.6,5.35-23.5-2.2,1.25-1.62,2.1-6.77,1.42-8.7,14.63-3.05,20.87-.27,23,5.4A5.66,5.66,0,0,1,1176.71,531.85Z"/><path id="Path_652" data-name="Path 652" class="cls-5" d="M1110.42,521c2.1,5.67,8.35,8.46,23,5.4-.67-1.92.17-7.08,1.43-8.7-12.9-7.55-19.7-6.9-23.5-2.2A5.69,5.69,0,0,0,1110.42,521Z"/></g><g id="Group_373" data-name="Group 373"><path id="Path_653" data-name="Path 653" class="cls-5" d="M1172.91,506.34c.64,6-3.71,11.28-18.17,15.06-.25-2-3.3-6.27-5.14-7.16,8.19-12.5,14.57-14.94,20.06-12.42A5.65,5.65,0,0,1,1172.91,506.34Z"/><path id="Path_654" data-name="Path 654" class="cls-5" d="M1118.37,545.55c5.5,2.51,11.88.07,20.06-12.43-1.84-.89-4.89-5.13-5.14-7.16-14.46,3.78-18.81,9-18.17,15.06A5.68,5.68,0,0,0,1118.37,545.55Z"/></g><circle id="Ellipse_173" data-name="Ellipse 173" class="cls-6" cx="1144.02" cy="523.68" r="10.98"/><circle id="Ellipse_174" data-name="Ellipse 174" class="cls-6" cx="1144.01" cy="523.68" r="7.68"/></g><g id="Group_379" data-name="Group 379"><g id="Group_375" data-name="Group 375"><path id="Path_655" data-name="Path 655" class="cls-6" d="M980.42,497.29c-4.7-3.79-5.35-10.6,2.2-23.5,1.61,1.25,6.77,2.1,8.7,1.42,3,14.63.26,20.87-5.4,23A5.68,5.68,0,0,1,980.42,497.29Z"/><path id="Path_656" data-name="Path 656" class="cls-6" d="M991.26,431c-5.66,2.1-8.45,8.35-5.4,23,1.93-.68,7.09.16,8.7,1.42,7.55-12.9,6.9-19.7,2.2-23.5A5.68,5.68,0,0,0,991.26,431Z"/></g><g id="Group_376" data-name="Group 376"><path id="Path_657" data-name="Path 657" class="cls-6" d="M1005.93,493.49c-6,.64-11.28-3.71-15.06-18.17,2-.25,6.27-3.3,7.16-5.14,12.5,8.18,15,14.57,12.42,20.06A5.63,5.63,0,0,1,1005.93,493.49Z"/><path id="Path_658" data-name="Path 658" class="cls-6" d="M966.73,439c-2.52,5.5-.08,11.88,12.42,20.06.89-1.83,5.14-4.88,7.16-5.14-3.78-14.46-9-18.81-15.06-18.17A5.67,5.67,0,0,0,966.73,439Z"/></g><g id="Group_377" data-name="Group 377"><path id="Path_659" data-name="Path 659" class="cls-6" d="M1021.29,472.77c-3.8,4.7-10.6,5.35-23.5-2.2,1.25-1.61,2.1-6.77,1.42-8.7,14.63-3.05,20.87-.27,23,5.4A5.66,5.66,0,0,1,1021.29,472.77Z"/><path id="Path_660" data-name="Path 660" class="cls-6" d="M955,461.92c2.1,5.67,8.34,8.46,23,5.4-.67-1.92.17-7.08,1.43-8.7-12.9-7.55-19.7-6.9-23.5-2.2A5.64,5.64,0,0,0,955,461.92Z"/></g><g id="Group_378" data-name="Group 378"><path id="Path_661" data-name="Path 661" class="cls-6" d="M1017.49,447.26c.64,6-3.71,11.28-18.17,15.06-.25-2-3.3-6.27-5.14-7.16,8.18-12.5,14.57-15,20.06-12.43A5.66,5.66,0,0,1,1017.49,447.26Z"/><path id="Path_662" data-name="Path 662" class="cls-6" d="M963,486.46c5.49,2.52,11.87.08,20.06-12.42-1.84-.89-4.89-5.14-5.14-7.16-14.46,3.78-18.81,9.05-18.18,15.06A5.66,5.66,0,0,0,963,486.46Z"/></g><circle id="Ellipse_175" data-name="Ellipse 175" class="cls-5" cx="988.59" cy="464.6" r="10.98"/><circle id="Ellipse_176" data-name="Ellipse 176" class="cls-5" cx="988.59" cy="464.6" r="7.68"/></g><g id="Group_385" data-name="Group 385"><circle id="Ellipse_177" data-name="Ellipse 177" class="cls-4" cx="1044.06" cy="413.77" r="6.15"/><g id="Group_384" data-name="Group 384"><g id="Group_380" data-name="Group 380"><path id="Path_663" data-name="Path 663" class="cls-3" d="M1039.48,432.09c-2.64-2.13-3-5.94,1.23-13.16a7.62,7.62,0,0,0,4.87.8c1.71,8.2.15,11.69-3,12.87A3.17,3.17,0,0,1,1039.48,432.09Z"/><path id="Path_664" data-name="Path 664" class="cls-3" d="M1045.56,394.94c-3.18,1.18-4.74,4.68-3,12.87a7.62,7.62,0,0,1,4.87.8c4.24-7.22,3.87-11,1.24-13.16A3.18,3.18,0,0,0,1045.56,394.94Z"/></g><g id="Group_381" data-name="Group 381"><path id="Path_665" data-name="Path 665" class="cls-3" d="M1053.78,430c-3.37.36-6.33-2.08-8.44-10.18a7.62,7.62,0,0,0,4-2.88c7,4.58,8.38,8.16,7,11.24A3.16,3.16,0,0,1,1053.78,430Z"/><path id="Path_666" data-name="Path 666" class="cls-3" d="M1031.8,399.39c-1.41,3.08,0,6.66,7,11.25a7.65,7.65,0,0,1,4-2.89c-2.12-8.1-5.07-10.54-8.43-10.18A3.17,3.17,0,0,0,1031.8,399.39Z"/></g><g id="Group_382" data-name="Group 382"><path id="Path_667" data-name="Path 667" class="cls-3" d="M1062.38,418.35c-2.13,2.63-5.94,3-13.16-1.24a7.62,7.62,0,0,0,.8-4.87c8.2-1.71,11.7-.15,12.87,3A3.18,3.18,0,0,1,1062.38,418.35Z"/><path id="Path_668" data-name="Path 668" class="cls-3" d="M1025.23,412.27c1.18,3.17,4.68,4.74,12.88,3a7.63,7.63,0,0,1,.8-4.87c-7.23-4.24-11-3.87-13.17-1.23A3.17,3.17,0,0,0,1025.23,412.27Z"/></g><g id="Group_383" data-name="Group 383"><path id="Path_669" data-name="Path 669" class="cls-3" d="M1060.25,404.05c.36,3.37-2.08,6.32-10.18,8.44a7.67,7.67,0,0,0-2.88-4c4.58-7,8.16-8.37,11.24-7A3.14,3.14,0,0,1,1060.25,404.05Z"/><path id="Path_670" data-name="Path 670" class="cls-3" d="M1029.69,426c3.07,1.41,6.65,0,11.24-7a7.55,7.55,0,0,1-2.88-4c-8.1,2.12-10.54,5.07-10.18,8.43A3.17,3.17,0,0,0,1029.69,426Z"/></g><circle id="Ellipse_178" data-name="Ellipse 178" class="cls-4" cx="1044.06" cy="413.77" r="4.3"/></g></g><g id="Group_391" data-name="Group 391"><circle id="Ellipse_179" data-name="Ellipse 179" class="cls-4" cx="1147.14" cy="593.16" r="6.15"/><g id="Group_390" data-name="Group 390"><g id="Group_386" data-name="Group 386"><path id="Path_671" data-name="Path 671" class="cls-3" d="M1142.56,611.49c-2.63-2.13-3-5.94,1.24-13.17a7.56,7.56,0,0,0,4.87.8c1.71,8.2.15,11.7-3,12.88A3.18,3.18,0,0,1,1142.56,611.49Z"/><path id="Path_672" data-name="Path 672" class="cls-3" d="M1148.64,574.34c-3.18,1.18-4.74,4.68-3,12.87a7.62,7.62,0,0,1,4.87.8c4.23-7.22,3.87-11,1.24-13.16A3.18,3.18,0,0,0,1148.64,574.34Z"/></g><g id="Group_387" data-name="Group 387"><path id="Path_673" data-name="Path 673" class="cls-3" d="M1156.86,609.36c-3.37.36-6.32-2.08-8.44-10.18a7.62,7.62,0,0,0,4-2.88c7,4.59,8.38,8.16,7,11.24A3.14,3.14,0,0,1,1156.86,609.36Z"/><path id="Path_674" data-name="Path 674" class="cls-3" d="M1134.89,578.79c-1.41,3.08,0,6.66,7,11.24a7.68,7.68,0,0,1,4-2.88c-2.12-8.1-5.07-10.54-8.44-10.18A3.17,3.17,0,0,0,1134.89,578.79Z"/></g><g id="Group_388" data-name="Group 388"><path id="Path_675" data-name="Path 675" class="cls-3" d="M1165.46,597.74c-2.12,2.64-5.94,3-13.16-1.23a7.63,7.63,0,0,0,.8-4.87c8.2-1.71,11.7-.15,12.87,3A3.14,3.14,0,0,1,1165.46,597.74Z"/><path id="Path_676" data-name="Path 676" class="cls-3" d="M1128.32,591.67c1.18,3.18,4.67,4.74,12.87,3a7.65,7.65,0,0,1,.8-4.88c-7.23-4.23-11-3.86-13.16-1.23A3.18,3.18,0,0,0,1128.32,591.67Z"/></g><g id="Group_389" data-name="Group 389"><path id="Path_677" data-name="Path 677" class="cls-3" d="M1163.33,583.45c.36,3.36-2.08,6.32-10.18,8.43a7.65,7.65,0,0,0-2.89-4c4.59-7,8.17-8.38,11.25-7A3.17,3.17,0,0,1,1163.33,583.45Z"/><path id="Path_678" data-name="Path 678" class="cls-3" d="M1132.77,605.42c3.08,1.41,6.66,0,11.25-7a7.63,7.63,0,0,1-2.89-4c-8.1,2.12-10.54,5.07-10.18,8.44A3.17,3.17,0,0,0,1132.77,605.42Z"/></g><circle id="Ellipse_180" data-name="Ellipse 180" class="cls-4" cx="1147.14" cy="593.16" r="4.3"/></g></g><g id="Group_397" data-name="Group 397"><circle id="Ellipse_181" data-name="Ellipse 181" class="cls-5" cx="1022.27" cy="623.6" r="6.15"/><g id="Group_396" data-name="Group 396"><g id="Group_392" data-name="Group 392"><path id="Path_679" data-name="Path 679" class="cls-6" d="M1017.69,641.92c-2.63-2.13-3-5.94,1.24-13.16a7.62,7.62,0,0,0,4.87.8c1.71,8.2.15,11.7-3,12.87A3.19,3.19,0,0,1,1017.69,641.92Z"/><path id="Path_680" data-name="Path 680" class="cls-6" d="M1023.77,604.77c-3.17,1.18-4.73,4.68-3,12.88a7.63,7.63,0,0,1,4.87.8c4.24-7.23,3.86-11,1.23-13.17A3.17,3.17,0,0,0,1023.77,604.77Z"/></g><g id="Group_393" data-name="Group 393"><path id="Path_681" data-name="Path 681" class="cls-6" d="M1032,639.79c-3.37.36-6.32-2.08-8.44-10.18a7.62,7.62,0,0,0,4-2.88c7,4.58,8.38,8.16,7,11.24A3.14,3.14,0,0,1,1032,639.79Z"/><path id="Path_682" data-name="Path 682" class="cls-6" d="M1010,609.23c-1.41,3.08,0,6.65,7,11.24a7.63,7.63,0,0,1,4-2.88c-2.12-8.1-5.07-10.54-8.43-10.18A3.17,3.17,0,0,0,1010,609.23Z"/></g><g id="Group_394" data-name="Group 394"><path id="Path_683" data-name="Path 683" class="cls-6" d="M1040.59,628.18c-2.12,2.63-5.94,3-13.16-1.24a7.62,7.62,0,0,0,.8-4.87c8.2-1.71,11.7-.15,12.87,3A3.15,3.15,0,0,1,1040.59,628.18Z"/><path id="Path_684" data-name="Path 684" class="cls-6" d="M1003.45,622.1c1.18,3.18,4.67,4.74,12.87,3a7.65,7.65,0,0,1,.8-4.88c-7.23-4.23-11-3.86-13.16-1.23A3.15,3.15,0,0,0,1003.45,622.1Z"/></g><g id="Group_395" data-name="Group 395"><path id="Path_685" data-name="Path 685" class="cls-6" d="M1038.47,613.88c.35,3.37-2.08,6.32-10.19,8.44a7.62,7.62,0,0,0-2.88-4c4.59-7,8.16-8.38,11.24-7A3.16,3.16,0,0,1,1038.47,613.88Z"/><path id="Path_686" data-name="Path 686" class="cls-6" d="M1007.9,635.85c3.08,1.41,6.66,0,11.25-7a7.66,7.66,0,0,1-2.89-4c-8.1,2.12-10.54,5.07-10.18,8.44A3.17,3.17,0,0,0,1007.9,635.85Z"/></g><circle id="Ellipse_182" data-name="Ellipse 182" class="cls-5" cx="1022.27" cy="623.6" r="4.3"/></g></g><g id="Group_402" data-name="Group 402"><g id="Group_398" data-name="Group 398"><path id="Path_687" data-name="Path 687" class="cls-4" d="M1100.42,594c4.7,3.79,5.36,10.6-2.2,23.5-1.61-1.26-6.77-2.1-8.69-1.43-3-14.63-.27-20.87,5.4-23A5.67,5.67,0,0,1,1100.42,594Z"/><path id="Path_688" data-name="Path 688" class="cls-4" d="M1089.58,660.32c5.66-2.1,8.45-8.34,5.4-23-1.93.67-7.09-.17-8.7-1.43-7.55,12.9-6.9,19.7-2.2,23.5A5.64,5.64,0,0,0,1089.58,660.32Z"/></g><g id="Group_399" data-name="Group 399"><path id="Path_689" data-name="Path 689" class="cls-4" d="M1074.91,597.83c6-.63,11.28,3.72,15.06,18.17-2,.26-6.27,3.3-7.16,5.15-12.5-8.19-14.94-14.57-12.42-20.07A5.67,5.67,0,0,1,1074.91,597.83Z"/><path id="Path_690" data-name="Path 690" class="cls-4" d="M1114.11,652.38c2.52-5.5.08-11.88-12.42-20.07-.89,1.84-5.14,4.89-7.16,5.15,3.78,14.45,9,18.8,15.06,18.17A5.67,5.67,0,0,0,1114.11,652.38Z"/></g><g id="Group_400" data-name="Group 400"><path id="Path_691" data-name="Path 691" class="cls-4" d="M1059.56,618.55c3.79-4.7,10.6-5.35,23.5,2.2-1.26,1.62-2.1,6.77-1.43,8.7-14.62,3.06-20.87.27-23-5.4A5.67,5.67,0,0,1,1059.56,618.55Z"/><path id="Path_692" data-name="Path 692" class="cls-4" d="M1125.85,629.4c-2.1-5.66-8.35-8.45-23-5.4.67,1.93-.17,7.09-1.42,8.7,12.89,7.56,19.7,6.9,23.5,2.2A5.68,5.68,0,0,0,1125.85,629.4Z"/></g><g id="Group_401" data-name="Group 401"><path id="Path_693" data-name="Path 693" class="cls-4" d="M1063.36,644.07c-.64-6,3.71-11.28,18.17-15.06.25,2,3.3,6.27,5.14,7.15-8.19,12.5-14.57,15-20.06,12.43A5.65,5.65,0,0,1,1063.36,644.07Z"/><path id="Path_694" data-name="Path 694" class="cls-4" d="M1117.89,604.87c-5.49-2.52-11.87-.08-20.06,12.42,1.84.89,4.89,5.13,5.14,7.16,14.46-3.78,18.81-9.05,18.18-15.06A5.64,5.64,0,0,0,1117.89,604.87Z"/></g><circle id="Ellipse_183" data-name="Ellipse 183" class="cls-7" cx="1092.25" cy="626.73" r="10.98"/><circle id="Ellipse_184" data-name="Ellipse 184" class="cls-7" cx="1092.25" cy="626.73" r="7.68"/></g><g id="Group_407" data-name="Group 407"><g id="Group_403" data-name="Group 403"><path id="Path_695" data-name="Path 695" class="cls-7" d="M1090.26,431.9c4.7,3.8,5.36,10.6-2.2,23.5-1.61-1.25-6.76-2.1-8.7-1.42-3-14.63-.26-20.87,5.4-23A5.68,5.68,0,0,1,1090.26,431.9Z"/><path id="Path_696" data-name="Path 696" class="cls-7" d="M1079.42,498.19c5.67-2.1,8.45-8.34,5.4-23-1.93.67-7.09-.17-8.7-1.43-7.55,12.9-6.9,19.7-2.2,23.5A5.66,5.66,0,0,0,1079.42,498.19Z"/></g><g id="Group_404" data-name="Group 404"><path id="Path_697" data-name="Path 697" class="cls-7" d="M1064.75,435.7c6-.64,11.28,3.71,15.06,18.17-2,.25-6.27,3.3-7.15,5.14-12.5-8.18-15-14.57-12.43-20.06A5.65,5.65,0,0,1,1064.75,435.7Z"/><path id="Path_698" data-name="Path 698" class="cls-7" d="M1104,490.24c2.52-5.49.07-11.87-12.43-20.06-.88,1.84-5.13,4.89-7.15,5.14,3.77,14.46,9,18.81,15.06,18.17A5.66,5.66,0,0,0,1104,490.24Z"/></g><g id="Group_405" data-name="Group 405"><path id="Path_699" data-name="Path 699" class="cls-7" d="M1049.4,456.43c3.79-4.7,10.6-5.36,23.5,2.2-1.25,1.61-2.1,6.77-1.42,8.7-14.63,3.05-20.87.26-23-5.4A5.68,5.68,0,0,1,1049.4,456.43Z"/><path id="Path_700" data-name="Path 700" class="cls-7" d="M1115.69,467.27c-2.1-5.67-8.35-8.45-23-5.4.68,1.93-.16,7.09-1.42,8.7,12.89,7.56,19.7,6.9,23.5,2.2A5.69,5.69,0,0,0,1115.69,467.27Z"/></g><g id="Group_406" data-name="Group 406"><path id="Path_701" data-name="Path 701" class="cls-7" d="M1053.2,482c-.64-6,3.71-11.29,18.17-15.06.25,2,3.3,6.27,5.14,7.15-8.18,12.5-14.57,14.95-20.06,12.43A5.65,5.65,0,0,1,1053.2,482Z"/><path id="Path_702" data-name="Path 702" class="cls-7" d="M1107.74,442.73c-5.5-2.52-11.88-.07-20.06,12.43,1.84.88,4.89,5.13,5.14,7.15,14.46-3.77,18.81-9,18.17-15.06A5.68,5.68,0,0,0,1107.74,442.73Z"/></g><circle id="Ellipse_185" data-name="Ellipse 185" class="cls-4" cx="1082.09" cy="464.6" r="10.98"/><circle id="Ellipse_186" data-name="Ellipse 186" class="cls-4" cx="1082.09" cy="464.6" r="7.68"/></g><g id="Group_413" data-name="Group 413"><circle id="Ellipse_187" data-name="Ellipse 187" class="cls-4" cx="965.13" cy="580.09" r="6.15"/><g id="Group_412" data-name="Group 412"><g id="Group_408" data-name="Group 408"><path id="Path_703" data-name="Path 703" class="cls-7" d="M969.71,561.77c2.63,2.13,3,5.94-1.23,13.16a7.65,7.65,0,0,0-4.88-.8c-1.7-8.2-.14-11.7,3-12.87A3.17,3.17,0,0,1,969.71,561.77Z"/><path id="Path_704" data-name="Path 704" class="cls-7" d="M963.63,598.92c3.18-1.18,4.74-4.68,3-12.88a7.62,7.62,0,0,1-4.87-.8c-4.24,7.23-3.87,11-1.24,13.17A3.2,3.2,0,0,0,963.63,598.92Z"/></g><g id="Group_409" data-name="Group 409"><path id="Path_705" data-name="Path 705" class="cls-7" d="M955.41,563.9c3.37-.36,6.33,2.08,8.44,10.18a7.63,7.63,0,0,0-4,2.89c-7-4.59-8.37-8.17-7-11.25A3.17,3.17,0,0,1,955.41,563.9Z"/><path id="Path_706" data-name="Path 706" class="cls-7" d="M977.38,594.46c1.41-3.08,0-6.65-7-11.24a7.62,7.62,0,0,1-4,2.88c2.11,8.1,5.07,10.54,8.43,10.18A3.16,3.16,0,0,0,977.38,594.46Z"/></g><g id="Group_410" data-name="Group 410"><path id="Path_707" data-name="Path 707" class="cls-7" d="M946.81,575.51c2.13-2.63,5.94-3,13.16,1.24a7.62,7.62,0,0,0-.8,4.87c-8.2,1.71-11.7.15-12.87-3A3.18,3.18,0,0,1,946.81,575.51Z"/><path id="Path_708" data-name="Path 708" class="cls-7" d="M984,581.59c-1.18-3.18-4.68-4.74-12.88-3a7.62,7.62,0,0,1-.8,4.87c7.23,4.24,11.05,3.87,13.17,1.24A3.18,3.18,0,0,0,984,581.59Z"/></g><g id="Group_411" data-name="Group 411"><path id="Path_709" data-name="Path 709" class="cls-7" d="M948.94,589.81c-.36-3.37,2.08-6.32,10.18-8.44a7.63,7.63,0,0,0,2.89,4c-4.59,7-8.17,8.38-11.25,7A3.14,3.14,0,0,1,948.94,589.81Z"/><path id="Path_710" data-name="Path 710" class="cls-7" d="M979.5,567.84c-3.08-1.41-6.65,0-11.24,7a7.62,7.62,0,0,1,2.88,4c8.1-2.12,10.54-5.07,10.19-8.43A3.21,3.21,0,0,0,979.5,567.84Z"/></g><circle id="Ellipse_188" data-name="Ellipse 188" class="cls-4" cx="965.13" cy="580.09" r="4.3"/></g></g><g id="Group_419" data-name="Group 419"><circle id="Ellipse_189" data-name="Ellipse 189" class="cls-4" cx="982.98" cy="757.92" r="6.15"/><g id="Group_418" data-name="Group 418"><g id="Group_414" data-name="Group 414"><path id="Path_711" data-name="Path 711" class="cls-7" d="M987.56,739.61c2.64,2.13,3,5.94-1.23,13.16a7.63,7.63,0,0,0-4.87-.8c-1.71-8.2-.15-11.69,3-12.87A3.14,3.14,0,0,1,987.56,739.61Z"/><path id="Path_712" data-name="Path 712" class="cls-7" d="M981.48,776.74c3.18-1.18,4.74-4.67,3-12.87a7.62,7.62,0,0,1-4.87-.8c-4.24,7.22-3.87,11-1.24,13.16A3.18,3.18,0,0,0,981.48,776.74Z"/></g><g id="Group_415" data-name="Group 415"><path id="Path_713" data-name="Path 713" class="cls-7" d="M973.26,741.73c3.37-.36,6.33,2.08,8.44,10.18a7.67,7.67,0,0,0-4,2.88c-7-4.58-8.37-8.16-7-11.24A3.17,3.17,0,0,1,973.26,741.73Z"/><path id="Path_714" data-name="Path 714" class="cls-7" d="M995.24,772.29c1.41-3.08,0-6.65-7-11.24a7.62,7.62,0,0,1-4,2.88c2.12,8.1,5.07,10.54,8.44,10.19A3.21,3.21,0,0,0,995.24,772.29Z"/></g><g id="Group_416" data-name="Group 416"><path id="Path_715" data-name="Path 715" class="cls-7" d="M964.66,753.35c2.13-2.64,6-3,13.17,1.23a7.62,7.62,0,0,0-.8,4.87c-8.2,1.71-11.7.15-12.88-3A3.18,3.18,0,0,1,964.66,753.35Z"/><path id="Path_716" data-name="Path 716" class="cls-7" d="M1001.81,759.42c-1.18-3.17-4.68-4.73-12.88-3a7.57,7.57,0,0,1-.8,4.87c7.23,4.24,11,3.87,13.17,1.23A3.17,3.17,0,0,0,1001.81,759.42Z"/></g><g id="Group_417" data-name="Group 417"><path id="Path_717" data-name="Path 717" class="cls-7" d="M966.79,767.64c-.35-3.37,2.08-6.33,10.19-8.44a7.62,7.62,0,0,0,2.88,4c-4.59,7-8.17,8.37-11.24,7A3.17,3.17,0,0,1,966.79,767.64Z"/><path id="Path_718" data-name="Path 718" class="cls-7" d="M997.36,745.67c-3.08-1.41-6.66,0-11.25,7a7.63,7.63,0,0,1,2.89,4c8.1-2.12,10.53-5.07,10.18-8.44A3.17,3.17,0,0,0,997.36,745.67Z"/></g><circle id="Ellipse_190" data-name="Ellipse 190" class="cls-4" cx="982.98" cy="757.92" r="4.3"/></g></g></g><g id="Group_420" data-name="Group 420"><path id="Path_719" data-name="Path 719" class="cls-8" d="M1177.55,287.86a7.24,7.24,0,0,1-9.46-11c3-2.61,16.35-6.35,19.62-7.36C1186,272.33,1180.58,285.25,1177.55,287.86Z"/><path id="Path_720" data-name="Path 720" class="cls-8" d="M1163.75,263.66a7.24,7.24,0,0,1-9.46-11h0c3-2.61,16.35-6.34,19.61-7.36C1172.17,248.13,1166.78,261.05,1163.75,263.66Z"/><path id="Path_721" data-name="Path 721" class="cls-8" d="M1142.13,287.57a7.24,7.24,0,1,1-10.87-9.57h0c2.64-3,15.32-8.52,18.42-10C1148.35,271,1144.77,284.57,1142.13,287.57Z"/><path id="Path_722" data-name="Path 722" class="cls-8" d="M1154.54,311.38a7.23,7.23,0,0,1-10.21.74h0a7.23,7.23,0,0,1-.74-10.21l.08-.1c2.64-3,15.33-8.51,18.43-10C1160.77,294.85,1157.19,308.39,1154.54,311.38Z"/><path id="Path_723" data-name="Path 723" class="cls-8" d="M1145.24,242.08a7.24,7.24,0,0,1-9.46-11c3-2.61,16.35-6.35,19.62-7.36C1153.67,226.55,1148.27,239.47,1145.24,242.08Z"/><path id="Path_724" data-name="Path 724" class="cls-8" d="M1122.42,268.83a7.23,7.23,0,0,1-10.16,1.2h0a7.25,7.25,0,0,1-1.2-10.17l.06-.07c2.5-3.13,14.9-9.25,17.93-10.84C1127.85,252,1124.92,265.71,1122.42,268.83Z"/><path id="Path_725" data-name="Path 725" class="cls-6" d="M1100.68,298.4a7.24,7.24,0,0,1-10,2.07h0a7.24,7.24,0,0,1-2.07-10h0c2.2-3.34,14-10.58,16.85-12.44C1104.53,281.16,1102.88,295.06,1100.68,298.4Z"/><path id="Path_726" data-name="Path 726" class="cls-6" d="M1122.6,313.68a7.24,7.24,0,1,1-12.1-8h0c2.2-3.34,14-10.57,16.85-12.44C1126.46,296.43,1124.8,310.34,1122.6,313.68Z"/><path id="Path_727" data-name="Path 727" class="cls-6" d="M1106,342.22a7.24,7.24,0,0,1-12.64-7.08l.08-.15c2-3.46,13.34-11.39,16.09-13.42C1108.83,324.77,1108,338.75,1106,342.22Z"/><path id="Path_728" data-name="Path 728" class="cls-6" d="M1082.61,330.42a7.24,7.24,0,0,1-13.4-5.5h0l.06-.14c1.56-3.68,11.85-12.93,14.33-15.28C1083.28,312.76,1084.17,326.74,1082.61,330.42Z"/><path id="Path_729" data-name="Path 729" class="cls-6" d="M1136.59,339.53a7.24,7.24,0,0,1-12.37-7.54h0c2.09-3.41,13.62-11.05,16.42-13C1139.85,322.16,1138.67,336.11,1136.59,339.53Z"/><path id="Path_730" data-name="Path 730" class="cls-9" d="M1124.24,369.86a7.24,7.24,0,0,1-9.29,4.31h0a7.24,7.24,0,0,1-4.31-9.29h0c1.37-3.75,11.2-13.49,13.56-16C1124,352.19,1125.61,366.11,1124.24,369.86Z"/><path id="Path_731" data-name="Path 731" class="cls-9" d="M1095.06,372.26a7.23,7.23,0,0,1-9.29,4.31h0a7.25,7.25,0,0,1-4.31-9.29c1.38-3.76,11.2-13.5,13.56-16C1094.87,354.6,1096.44,368.51,1095.06,372.26Z"/><path id="Path_732" data-name="Path 732" class="cls-9" d="M1067.38,363.7a7.24,7.24,0,0,1-13.6-5c1.37-3.75,11.2-13.49,13.56-16C1067.18,346,1068.75,359.94,1067.38,363.7Z"/><path id="Path_733" data-name="Path 733" class="cls-5" d="M1056.66,399.28a7.24,7.24,0,0,1-14-3.59h0c1-3.87,9.78-14.55,11.88-17.25C1054.68,381.72,1057.65,395.4,1056.66,399.28Z"/><path id="Path_734" data-name="Path 734" class="cls-5" d="M1086.27,403.29a7.25,7.25,0,0,1-8.76,5.3h0a7.25,7.25,0,0,1-5.31-8.76h0l0-.12c1-3.87,9.78-14.56,11.88-17.25C1084.29,385.73,1087.26,399.41,1086.27,403.29Z"/><path id="Path_735" data-name="Path 735" class="cls-5" d="M1081.4,436.32a7.24,7.24,0,1,1-14.34-2h0c.56-4,8.14-15.53,9.93-18.44C1077.52,419.08,1082,432.36,1081.4,436.32Z"/><path id="Path_736" data-name="Path 736" class="cls-5" d="M1113.44,434.79a7.24,7.24,0,1,1-14.48-.08c0-4,6-16.49,7.34-19.62C1107.26,418.24,1113.46,430.79,1113.44,434.79Z"/><path id="Path_737" data-name="Path 737" class="cls-5" d="M1051.47,435.46a7.23,7.23,0,0,1-8.25,6.06h0a7.23,7.23,0,0,1-6.06-8.25h0c.6-3.95,8.3-15.45,10.12-18.34C1047.77,418.18,1052.07,431.51,1051.47,435.46Z"/><path id="Path_738" data-name="Path 738" class="cls-9" d="M1115.34,402.62a7.24,7.24,0,1,1-14.09-3.35h0l.06-.22c1-3.88,9.78-14.56,11.88-17.26C1113.36,385.06,1116.33,398.74,1115.34,402.62Z"/><path id="Path_739" data-name="Path 739" class="cls-10" d="M1417.09,43.48c8.3-7.5,16.05-15.7,25-22.35C1468,1.84,1491,9,1500.81,39.64s8.9,62.69,7.64,94.47c-.46,11.81-2.55,23.1,7.21,33.4,5.87,6.2,3.65,15.13-3.42,20.89-37.59,30.64-75.19,61.28-113.19,91.4-3.61,2.86-10.56,4-15.11,2.8-48.1-12.85-96-26.35-144-39.64-5.88-1.63-11.8-3.08-18.15-4.73-.83,7.39-1,14.17-2.59,20.61a12.42,12.42,0,0,1-6.7,7.72c-1.88.67-6.22-2.26-7.82-4.66q-17.36-26-33.83-52.52c-1.65-2.66-2.11-7.47-.77-10.07,1-1.85,6.52-3.2,8.87-2.16,9.78,4.37,19.14,9.67,28.58,14.75,2.58,1.39,4.79,4.37,7.39,4.66,39.64,4.4,79.32,8.49,121.77,12.93-7.18-9.08-12.72-16.2-18.4-23.2Q1297,180,1275.59,153.87c-5.22-6.32-9.18-12.59-6-21.39.7-1.91-.94-4.95-2.07-7.19-2.9-5.77-6.86-11.11-9.06-17.11-5.45-14.88-.54-28,13.17-35.94,17.15-9.91,36.36-12.47,55.45-11.36C1347,62,1362.8,57.12,1377.66,43.2,1396.36,25.66,1399,26.7,1417.09,43.48Zm12,16.3,59.06,72.65c0-19.12,1.14-35.5-.34-51.65a186.88,186.88,0,0,0-8.8-40.69c-3.41-10.37-10.41-12.48-19.34-6.2-10.69,7.52-20.08,16.87-30.58,25.89Zm-146.86,60.34L1335.48,77l-1.34-3.85c-15.9,2.67-32.18,4-47.62,8.37-16.68,4.68-19.53,15-10.57,29.86,1.74,2.88,3.9,5.49,6.29,8.8Z"/></g></g><g id="Group_424" data-name="Group 424"><g id="Group_422" data-name="Group 422"><path id="Path_740" data-name="Path 740" class="cls-7" d="M1370.3,49.34a76.39,76.39,0,0,0,7.35-6.07Z"/><path id="Path_741" data-name="Path 741" class="cls-7" d="M1370.3,49.34c-12.76,9.27-26.56,12.57-43.21,11.61-19.1-1.11-38.3,1.45-55.46,11.37-13.7,7.92-18.61,21.05-13.17,35.93,2.2,6,6.17,11.34,9.07,17.11,1.13,2.24,2.76,5.28,2.07,7.19Zm-83.78,32.2c15.44-4.34,31.71-5.7,47.62-8.37l1.34,3.85-53.24,43.18c-2.39-3.32-4.55-5.92-6.29-8.8-9-14.87-6.11-25.19,10.57-29.86Z"/></g><path id="Path_742" data-name="Path 742" class="cls-7" d="M1221.8,238.3c-.83,7.39-1,14.17-2.58,20.61a12.46,12.46,0,0,1-6.71,7.72c-1.88.67-6.21-2.26-7.82-4.66q-17.36-26-33.83-52.52c-1.65-2.66-2.11-7.46-.77-10.07,1-1.86,6.52-3.2,8.87-2.15,9.78,4.36,19.14,9.66,28.58,14.74,2.58,1.39,4.79,4.38,7.39,4.66Z"/><g id="Group_423" data-name="Group 423"><path id="Path_743" data-name="Path 743" class="cls-7" d="M1512,163.55l-24.28-31c0-19.12,1.13-35.51-.35-51.66a185.71,185.71,0,0,0-8.8-40.69c-3.41-10.36-10.41-12.48-19.34-6.2-10.49,7.39-19.75,16.53-30,25.4L1416.6,43.54c8.3-7.5,16.05-15.7,25-22.34C1467.5,1.91,1490.49,9,1500.32,39.71s8.9,62.68,7.64,94.47c-.4,10.28-2,20.18,4,29.37"/></g></g></g></g></svg>