<svg id="Layer_1" data-name="Layer 1" xmlns="http://www.w3.org/2000/svg" viewBox="0 0 236.63 236.63"><defs><style>.cls-1{fill:#a0d7d5;}.cls-2{fill:#f5fffd;}</style></defs><g id="logo-2"><circle id="Ellipse_1-2" data-name="Ellipse 1-2" class="cls-1" cx="118.32" cy="118.32" r="90.66"/></g><g id="Group_253" data-name="Group 253"><path id="Path_58" data-name="Path 58" class="cls-2" d="M147.24,54.54H89.4A34.86,34.86,0,0,0,54.54,89.4v57.83A34.86,34.86,0,0,0,89.4,182.09h57.84a34.85,34.85,0,0,0,34.85-34.85h0V89.4A34.86,34.86,0,0,0,147.24,54.54Zm24.92,88.19a29.43,29.43,0,0,1-29.42,29.43H93.91a29.43,29.43,0,0,1-29.43-29.43h0V93.9A29.43,29.43,0,0,1,93.91,64.47h48.83A29.43,29.43,0,0,1,172.16,93.9h0Z"/><path id="Path_59" data-name="Path 59" class="cls-2" d="M118.32,85.51a32.81,32.81,0,1,0,32.81,32.81,32.81,32.81,0,0,0-32.81-32.81Zm0,54.26a21.45,21.45,0,1,1,21.45-21.45,21.45,21.45,0,0,1-21.45,21.45Z"/><circle id="Ellipse_6" data-name="Ellipse 6" class="cls-2" cx="152.73" cy="83.97" r="8.32"/></g></svg>