<svg id="Layer_1" data-name="Layer 1" xmlns="http://www.w3.org/2000/svg" viewBox="0 0 685.14 482.51"><defs><style>.cls-1{fill:#a0d7d5;}.cls-2{fill:#dbbcc0;}.cls-3{fill:#cc4f3f;}.cls-4{fill:#ead1d3;}.cls-5{fill:#fcaf89;}.cls-6{fill:none;stroke:#ffe1be;stroke-miterlimit:10;stroke-width:2.27px;}.cls-7{fill:#ffe1be;}</style></defs><g id="Group_50" data-name="Group 50"><g id="Group_45" data-name="Group 45"><path id="Path_1" data-name="Path 1" class="cls-1" d="M669.61,376.21,594.22,134.33a12.4,12.4,0,0,0-15.53-8.15c-.21.07-.41.13-.61.21l-235.51,87-235.51-87a12.4,12.4,0,0,0-15.93,7.33c-.07.2-.14.4-.2.61L15.54,376.21a12.4,12.4,0,0,0,8.14,15.53c.37.11.74.21,1.12.29l283.13,60.08c8,6,18.77,6.87,34.64,6.87,15.68,0,26.63-.83,34.64-6.87L660.34,392a12.41,12.41,0,0,0,9.56-14.71C669.82,377,669.72,376.57,669.61,376.21Z"/><path id="Path_2" data-name="Path 2" class="cls-2" d="M543.09,76.35l40.12,58.28L653.73,379l-59.58-53.5Z"/><path id="Path_3" data-name="Path 3" class="cls-3" d="M342.49,436.14c80.27-53.52,164-91.15,251.66-110.64L653.73,379,374.1,444.65C370.53,436.53,360.51,433.31,342.49,436.14Z"/><path id="Path_4" data-name="Path 4" class="cls-3" d="M342.49,436.14V198.34l.16-.18V436Z"/><path id="Path_5" data-name="Path 5" class="cls-4" d="M342.65,436c85.52-55.35,169-93.75,251.5-110.53L543.09,76.35c-70.39,21.39-138.55,54.89-200.52,121.9-62-67-130.12-100.52-200.51-121.9L91,325.5C173.5,342.28,257,380.68,342.49,436v.11l.09-.06.08.06Z"/><path id="Path_6" data-name="Path 6" class="cls-2" d="M142.05,76.35l-40.12,58.28L31.42,379,91,325.5Z"/><path id="Path_7" data-name="Path 7" class="cls-3" d="M342.65,436.14C262.38,382.62,178.65,345,91,325.5L31.42,379,311,444.65C314.61,436.53,324.63,433.31,342.65,436.14Z"/><path id="Path_8" data-name="Path 8" class="cls-3" d="M342.65,436.14V198.34l-.16-.18V436Z"/></g><g id="Group_49" data-name="Group 49"><g id="Group_46" data-name="Group 46"><path id="Path_9" data-name="Path 9" class="cls-5" d="M218.72,96.43l94.6,241.06-5.44-4.92L213.65,154.45l-15.87-39.63Z"/><path id="Path_10" data-name="Path 10" class="cls-5" d="M79.72,193.15,224.6,274l19,10.18L131.83,207Z"/><path id="Path_11" data-name="Path 11" class="cls-5" d="M79.72,90.66,149.47,67.5l48.31,47.32-50.51,78.33L79.72,169.49,69,104.89Z"/><path id="Path_12" data-name="Path 12" class="cls-5" d="M377.77,182.1l-35.3,184.43L302.3,182.22l-29.6-77.33L277.28,56l65.38,58.86,71.19-79v103.4Z"/><path id="Path_13" data-name="Path 13" class="cls-5" d="M521.28,71.63l60.18-4.13,31.83,25.55L611,130.33l-28.35,51.84-61.35-14.11L486,114.82Z"/><path id="Path_14" data-name="Path 14" class="cls-5" d="M462.18,96.43,371.83,337.49l5.45-4.92,89.9-178.12Z"/></g><g id="Group_47" data-name="Group 47"><line id="Line_5" data-name="Line 5" class="cls-6" x1="339.02" y1="114.82" x2="342.48" y2="366.52"/><path id="Path_15" data-name="Path 15" class="cls-7" d="M431.52,186,371.83,337.49l-29.35,29,35.3-184.42,19.89-20.67Z"/><path id="Path_16" data-name="Path 16" class="cls-7" d="M342.48,366.52,302.3,182.22l-29-27.77-24.77,31.8,64.76,151.24Z"/><path id="Path_17" data-name="Path 17" class="cls-7" d="M467.17,154.45l-89.9,178.12,33.93-27.41,143.13-97.55-28.76-33.73Z"/><path id="Path_18" data-name="Path 18" class="cls-7" d="M213.65,154.45l94.22,178.12-33.93-27.41L131.83,207l25.82-34.64Z"/><path id="Path_19" data-name="Path 19" class="cls-7" d="M171.74,139.18,135.53,64.8,74.88,110.72l57.69,54.11Z"/><path id="Path_20" data-name="Path 20" class="cls-7" d="M587.88,119.1c21.1-18.78,39.4-12.22,55.29,16.16L552,193.15l35.86-74.05"/><path id="Path_21" data-name="Path 21" class="cls-7" d="M545.1,145.16l-42.73,41.09c40.91-2.74,70.44-11.3,72.29-34Z"/></g><g id="Group_48" data-name="Group 48"><path id="Path_22" data-name="Path 22" class="cls-3" d="M43.83,148.92C29.13,106.35,60.21,57.19,114.19,45.2s102.48,19.31,107.28,64.09c4.88,45.14-27.65,85.49-71.73,95.43C105.62,214.42,58.6,191.85,43.83,148.92Zm120-30.61c-2.86-15.83-20.1-26-38.22-22s-29.45,20.62-25.32,36.17c4.19,15.78,21.23,24.88,38.09,21.13s28.36-19.23,25.45-35.3Z"/><path id="Path_23" data-name="Path 23" class="cls-3" d="M231.88,28.45q32-3.37,64.2-4.78Q318.48,47.88,338.83,73h2.06q20.28-25.17,42.59-49.48,32.16,1.3,64.22,4.59Q439.6,107,431.52,186q-26.83-2.75-53.75-3.86l3.41-82.89-1.51-.06q-20.28,22.23-38.74,45.26H339q-18.52-23-38.88-45.14l-1.51.07q1.83,41.43,3.67,82.88-26.91,1.18-53.74,4Z"/><path id="Path_24" data-name="Path 24" class="cls-3" d="M459.58,109.3c4.84-45.63,52.4-76.73,109.86-63.92,56.42,12.75,82.93,54.2,73.73,89.88q-27.45-8.91-55.29-16.16c.8-8.9-9.3-24.3-30.07-28.94s-40.66,5.23-44.36,26.43,10.7,38.29,28.37,42.23c13.76,3.06,24.24,1,32.84-6.61q-14.74-3.78-29.56-7.05,1.8-8.19,3.62-16.38,44.89,9.94,88.95,24.24c-14,39.44-56.91,62.61-104,52.07S454.65,155.39,459.58,109.3Z"/></g></g></g></svg>