<svg id="Layer_1" data-name="Layer 1" xmlns="http://www.w3.org/2000/svg" viewBox="0 0 236.63 236.63"><defs><style>.cls-1{fill:#a0d7d5;}.cls-2{fill:#f5fffd;}</style></defs><g id="logo-3"><circle id="Ellipse_1-3" data-name="Ellipse 1-3" class="cls-1" cx="118.32" cy="118.32" r="90.66"/></g><g id="vAGvMf.tif"><g id="Group_62" data-name="Group 62"><path id="Path_60" data-name="Path 60" class="cls-2" d="M89.87,100.3a59.41,59.41,0,0,1,.74-13.25C93.3,75.83,103,68.25,115.72,67.42A32.32,32.32,0,0,1,133,70.76a23.59,23.59,0,0,1,13.54,21.6c.13,5.38.09,10.77,0,16.15,0,1.71.57,2.36,2.21,2.49a16.61,16.61,0,0,0,7.77-1c1.59-.67,3.31-1,4,1.11s-.83,2.81-2.47,3.41a62,62,0,0,0-6.3,2.49c-4.69,2.33-5.92,5.73-3.35,10.21,5.15,8.95,11.47,16.67,22.22,19.22.45.1,1.24,0,1.24.85,0,.63-.55,1-1,1.27a17.8,17.8,0,0,1-8.46,2.86c-5.22.57-5.54.88-6.28,6.09-.15,1-.46,1.27-1.38,1.16s-2.08-.06-3.1-.23a23.11,23.11,0,0,0-20.13,6,19.94,19.94,0,0,1-19.64,3.86,16.75,16.75,0,0,1-6.86-3.85,22.55,22.55,0,0,0-20.1-6c-.93.16-1.89.09-2.82.22-1.21.18-1.54-.24-1.67-1.48-.45-4.55-1.08-5.2-5.72-5.7a18.49,18.49,0,0,1-9-3c-.46-.31-1-.65-.91-1.31s.83-.69,1.32-.81c10.84-2.64,17.16-10.49,22.26-19.57a6.23,6.23,0,0,0-1.44-8.7,6,6,0,0,0-1.51-.79,71.85,71.85,0,0,0-7.05-2.88c-1.59-.64-3.08-1.49-2.23-3.5.77-1.85,2.33-1.53,3.86-1a25.21,25.21,0,0,0,2.42.77c6.22,1.52,7.48.57,7.48-5.58C89.88,103.52,89.87,101.91,89.87,100.3Z"/></g></g></svg>