<svg id="Layer_1" data-name="Layer 1" xmlns="http://www.w3.org/2000/svg" viewBox="0 0 1501.06 840.16"><defs><style>.cls-1{fill:#f3cbb8;}.cls-2{fill:#fcaf89;}.cls-3{fill:#ffe1be;}.cls-4{fill:#dbbcc0;}.cls-5{fill:#a0d7d5;}.cls-6,.cls-7{fill:none;stroke:#00b2a9;}.cls-6{stroke-miterlimit:10;}.cls-7{stroke-linecap:round;stroke-linejoin:round;}</style></defs><g id="Group_52" data-name="Group 52"><path id="Path_37" data-name="Path 37" class="cls-1" d="M308.15,776.27c0,34.41-297.21,34.41-297.21,0V29.89c0,26.55,297.21,26.55,297.21,0Z"/><ellipse id="Ellipse_2" data-name="Ellipse 2" class="cls-1" cx="159.54" cy="29.89" rx="148.61" ry="20.9"/><ellipse id="Ellipse_3" data-name="Ellipse 3" class="cls-2" cx="159.54" cy="29.89" rx="88.06" ry="12.39"/><path id="Path_38" data-name="Path 38" class="cls-3" d="M308.15,62.71c179.4,38.74,360.26,55.23,543.92,29.08,152-26.19,317.82-10.11,490.23,26.21V831.17c-133.92-54-309.22-51.39-501.48-25.47-185,25.6-362.86,17.92-532.67-27.05Z"/></g><g id="Group_56" data-name="Group 56"><g id="Group_53" data-name="Group 53"><ellipse id="Ellipse_4" data-name="Ellipse 4" class="cls-1" cx="1370.45" cy="809.25" rx="69.24" ry="14.43"/><path id="Path_39" data-name="Path 39" class="cls-4" d="M1378.42,804.83v-5.11a2.81,2.81,0,0,0-2.81-2.81h-1.25V522.59h-7.83V796.91h-1.25a2.81,2.81,0,0,0-2.81,2.81v5.11Z"/><path id="Path_40" data-name="Path 40" class="cls-4" d="M1362.47,804.83h16v3.32a51.4,51.4,0,0,1-16,0Z"/></g><path id="Path_41" data-name="Path 41" class="cls-5" d="M1437.49,322.49a5.6,5.6,0,0,0-3.68-7c-.19-.06-.39-.11-.58-.15l-7-1.39a45.5,45.5,0,0,1-36.7-44.65h0c-1.79,3.5-7.29,5.75-19,5.9-11.74-.15-17.24-2.4-19-5.9h0a45.51,45.51,0,0,1-36.7,44.65l-7,1.39a5.59,5.59,0,0,0-4.41,6.58,5.66,5.66,0,0,0,.15.59c17.73,41.85,30.93,80.25,35.1,111.8a19.08,19.08,0,0,1,.14,2.27v5.3a17,17,0,0,1-4.61,11.57c-12.82,13.85-20.34,28.93-22,45.36a11.34,11.34,0,0,0,3.32,9.3,137.66,137.66,0,0,0,49.84,31.54,15.45,15.45,0,0,0,10.6,0,137.78,137.78,0,0,0,49.85-31.54,11.36,11.36,0,0,0,3.31-9.3c-1.71-16.43-9.23-31.51-22-45.36a17.06,17.06,0,0,1-4.62-11.57v-5.3a17.19,17.19,0,0,1,.15-2.27C1406.55,402.74,1419.75,364.34,1437.49,322.49Z"/><path id="Path_42" data-name="Path 42" class="cls-1" d="M1374.49,259.35v-5.22a1.87,1.87,0,0,0-1.87-1.87h-.29v-8.39a5.87,5.87,0,1,0-3.77,0v8.38h-.29a1.88,1.88,0,0,0-1.87,1.87h0v5.23c-5,1.17-10,4.45-15,9.93q2.71,5.67,19,5.91,16.32-.24,19-5.91C1384.48,263.8,1379.48,260.51,1374.49,259.35Z"/><g id="Group_55" data-name="Group 55"><path id="Path_43" data-name="Path 43" class="cls-6" d="M1404.64,447.38h-68.23s-51.07,39.84-85.47,168.32c2.61,15.67,44.51,30,119.59,30s117-14.38,119.59-30C1455.72,487.22,1404.64,447.38,1404.64,447.38Z"/><g id="Group_54" data-name="Group 54"><path id="Path_44" data-name="Path 44" class="cls-7" d="M1490.12,615.7c0-40.07-239.18-40.07-239.18,0S1490.12,655.76,1490.12,615.7Z"/><path id="Path_45" data-name="Path 45" class="cls-7" d="M1478.31,582.87c0-31.72-215.56-31.72-215.56,0S1478.31,614.59,1478.31,582.87Z"/><path id="Path_46" data-name="Path 46" class="cls-7" d="M1349.7,532.92c-41.19,1.6-77.25,8-77.25,19.32,0,26.3,196.15,26.3,196.15,0,0-11.29-36.14-17.73-77.4-19.33"/><path id="Path_47" data-name="Path 47" class="cls-7" d="M1316.51,509.26c-19,2.87-32.18,7.51-32.18,13.92,0,23.2,172.39,23.2,172.39,0,0-6.42-13.21-11.07-32.32-13.94"/><path id="Path_50" data-name="Path 50" class="cls-7" d="M1299.32,494.58c17.48,21.51,124,21.59,142.2.25"/><path id="Path_51" data-name="Path 51" class="cls-7" d="M1315.47,470.64c28.28,6.8,81.83,6.8,110.11,0"/></g><path id="Path_52" data-name="Path 52" class="cls-7" d="M1486.27,622.66c-24.34-86.31-53.18-146.93-84.1-175.28H1400c39.44,57.36,61.37,119.33,72,184.26-5.23,2.41-12.35,4.73-22.4,6.92-14.11-82.91-32.09-149.2-55.72-191.18h-7.79c16.44,49,27.32,117.16,35.14,195.8q-17.73,1.89-35.14,2.35c-2.2-83-4.67-160.34-9-198.15h-11.79c-7.54,42.3-11.68,115.24-14.74,198q-17.7-.9-34.29-2.63c8.5-75.08,21.48-140.65,39.56-195.38H1348c-26.46,47.26-46.51,111.38-61,190.11a52.13,52.13,0,0,1-21.6-7.56c16.56-75.59,36.94-144,73.41-182.55"/><path id="Path_53" data-name="Path 53" class="cls-1" d="M1404.64,447.38a329.65,329.65,0,0,1-68.23,0V436.23a258,258,0,0,0,68.23,0Z"/></g></g></svg>