<svg id="Layer_1" data-name="Layer 1" xmlns="http://www.w3.org/2000/svg" viewBox="0 0 2003 778.79"><defs><style>.cls-1{fill:#ffe1be;}.cls-2{fill:#f3cbb8;}</style></defs><g id="Group_446" data-name="Group 446"><g id="Group_444" data-name="Group 444"><path id="Path_766" data-name="Path 766" class="cls-1" d="M306.13,209.22H79V7.21H788.77v202H561.64V771.58H306.13Z"/><path id="Path_767" data-name="Path 767" class="cls-1" d="M865.19,7.21h313.47V771.58H865.19Z"/><path id="Path_768" data-name="Path 768" class="cls-1" d="M2003,249.62c0,134.31-123.39,240.23-259.89,240.23H1480V771.58H1224.44V7.21H1754C1909.1,7.21,2003,96.75,2003,249.62Zm-255.52-2.18c0-26.21-17.47-38.22-41.5-38.22H1480v78.62h226c24,0,41.5-16.38,41.5-40.4Z"/></g><g id="Group_443" data-name="Group 443"><path id="Path_766-2" data-name="Path 766-2" class="cls-2" d="M227.13,209.22H0V7.21H709.77v202H482.64V771.58H227.13Z"/><path id="Path_767-2" data-name="Path 767-2" class="cls-2" d="M786.19,7.21H1041.7V771.58H786.19Z"/><path id="Path_768-2" data-name="Path 768-2" class="cls-2" d="M1924,249.62c0,134.31-123.39,240.23-259.89,240.23H1401V771.58H1145.44V7.21H1675C1830.1,7.21,1924,96.75,1924,249.62Zm-255.52-2.18c0-26.21-17.47-38.22-41.5-38.22H1401v78.62h226c24,0,41.5-16.38,41.5-40.4Z"/></g></g></svg>