<svg id="Layer_1" data-name="Layer 1" xmlns="http://www.w3.org/2000/svg" viewBox="0 0 1563.92 2649.76"><defs><style>.cls-1,.cls-12,.cls-13,.cls-15{fill:none;}.cls-1,.cls-15{stroke:#dbbcc0;}.cls-1{stroke-miterlimit:10;stroke-width:3px;}.cls-10,.cls-14,.cls-2,.cls-9{fill:#a0d7d5;}.cls-3{fill:#00b2a9;}.cls-4{fill:#ffe1be;}.cls-5{fill:#fcaf89;}.cls-6{fill:#f5fffd;}.cls-7{fill:#b0eae5;}.cls-8{fill:#cc4f3f;}.cls-10,.cls-14,.cls-9{stroke:#f5fffd;}.cls-12,.cls-9{stroke-miterlimit:10;}.cls-9{stroke-width:2px;}.cls-10,.cls-14{stroke-miterlimit:10;}.cls-10{stroke-width:2px;}.cls-11{fill:#dbbcc0;}.cls-12{stroke:#ead1d3;stroke-width:2.86px;}.cls-13{stroke:#ffe1be;stroke-linecap:round;stroke-linejoin:round;stroke-width:5px;}.cls-14{stroke-width:2px;}.cls-15{stroke-miterlimit:10;stroke-width:3px;}</style></defs><g id="Group_439" data-name="Group 439"><path id="Path_746" data-name="Path 746" class="cls-1" d="M909.41,830.27s144.34,185.32,295.72,81.31S1108.7,762,1114.82,839.86s55.18,150.84,90.31,158.7"/><g id="Group_430" data-name="Group 430"><ellipse id="Ellipse_193" data-name="Ellipse 193" class="cls-2" cx="783.96" cy="826.36" rx="159.26" ry="25.67"/><path id="Path_747" data-name="Path 747" class="cls-3" d="M802.82,829.63a49.83,49.83,0,0,1-37.71,0V728h37.71Z"/><rect id="Rectangle_73" data-name="Rectangle 73" class="cls-2" x="148.96" y="24.09" width="1270" height="715.85" rx="71.02"/></g><rect id="Rectangle_74" data-name="Rectangle 74" class="cls-4" x="179.87" y="54.03" width="1208.18" height="641.82" rx="66.22"/><path id="Path_748" data-name="Path 748" class="cls-1" d="M634.77,818.11s4.8-39.45-68.27-24.07-57.68,116.33-94.21,145.17S331,944,305,992.08"/><g id="Group_434" data-name="Group 434"><path id="Path_749" data-name="Path 749" class="cls-5" d="M1342.48,1072.54c-.24-.88-.5-1.77-.69-2.67-6.82-31.86-15-62.24-28.52-86.95l-2.5-4.87a11.78,11.78,0,0,0-10.08-6.36l-23.55-.77a18.44,18.44,0,0,0-16.67,9.29,15.3,15.3,0,0,1-10.07,7.45l-34.87,7.23-11.85,2.46-34.86,7.22a15.24,15.24,0,0,1-12.21-2.83,18.44,18.44,0,0,0-19-1.9l-21.3,10.07a11.8,11.8,0,0,0-6.73,9.84l-.36,5.47c-2.56,28,2,59.18,8.4,91.12.18.9.3,1.81.43,2.72a25.39,25.39,0,0,0,24.59,21.83,32.14,32.14,0,0,0,32.82-31.44,32.92,32.92,0,0,0-.24-4.66,11.47,11.47,0,0,1,9-12.65l37.44-7.76,11.86-2.46,37.44-7.77a11.47,11.47,0,0,1,13.33,8,32.14,32.14,0,0,0,39.87,21.81,31.61,31.61,0,0,0,4.38-1.63A25.38,25.38,0,0,0,1342.48,1072.54Z"/><circle id="Ellipse_194" data-name="Ellipse 194" class="cls-6" cx="1263.3" cy="1063.37" r="18.01"/><circle id="Ellipse_195" data-name="Ellipse 195" class="cls-6" cx="1190.83" cy="1078.39" r="18.01"/><circle id="Ellipse_196" data-name="Ellipse 196" class="cls-7" cx="1190.83" cy="1078.39" r="12.73"/><circle id="Ellipse_197" data-name="Ellipse 197" class="cls-7" cx="1263.3" cy="1063.37" r="12.73"/><g id="Group_433" data-name="Group 433"><g id="Group_431" data-name="Group 431"><circle id="Ellipse_198" data-name="Ellipse 198" class="cls-8" cx="1290.31" cy="994.79" r="5.72"/><circle id="Ellipse_199" data-name="Ellipse 199" class="cls-8" cx="1303.84" cy="1003.67" r="5.72"/></g><g id="Group_432" data-name="Group 432"><circle id="Ellipse_200" data-name="Ellipse 200" class="cls-8" cx="1294.96" cy="1017.19" r="5.72"/><circle id="Ellipse_201" data-name="Ellipse 201" class="cls-8" cx="1281.43" cy="1008.31" r="5.72"/></g></g><path id="Path_750" data-name="Path 750" class="cls-8" d="M1159.59,1034l-4.66,1a3.57,3.57,0,0,1-4.23-2.77l-1-4.66a3.57,3.57,0,0,0-4.23-2.78l-3.43.72a3.57,3.57,0,0,0-2.77,4.22l1,4.66a3.57,3.57,0,0,1-2.77,4.22l-4.66,1a3.57,3.57,0,0,0-2.77,4.22h0l.71,3.43A3.57,3.57,0,0,0,1135,1050l4.66-1a3.58,3.58,0,0,1,4.23,2.78l1,4.66a3.57,3.57,0,0,0,4.22,2.77l3.44-.71a3.57,3.57,0,0,0,2.77-4.22l-1-4.66a3.57,3.57,0,0,1,2.77-4.23l4.66-1a3.57,3.57,0,0,0,2.77-4.23l-.71-3.43a3.58,3.58,0,0,0-4.22-2.78Z"/></g><g id="Group_438" data-name="Group 438"><path id="Path_751" data-name="Path 751" class="cls-7" d="M167.65,1033.15c.44-.8.9-1.61,1.3-2.44,14.06-29.38,29.13-57,48-77.89l3.57-4.15a11.79,11.79,0,0,1,11.29-3.83l23.08,4.74a18.47,18.47,0,0,1,14,12.93,15.3,15.3,0,0,0,8.05,9.6l32.21,15.16,11,5.16,32.21,15.17a15.29,15.29,0,0,0,12.53.09,18.44,18.44,0,0,1,18.91,2.59L402.18,1025a11.8,11.8,0,0,1,4.24,11.15l-.93,5.39c-4.05,27.87-15.75,57.08-29.44,86.65-.38.83-.71,1.69-1.05,2.55a25.38,25.38,0,0,1-29,15.47A32.14,32.14,0,0,1,321.43,1108a33.33,33.33,0,0,1,1.32-4.48,11.44,11.44,0,0,0-5.85-14.4l-34.6-16.29-10.95-5.16-34.6-16.29a11.46,11.46,0,0,0-14.83,4.67,32.13,32.13,0,0,1-43.86,11.9,31.52,31.52,0,0,1-3.87-2.6A25.38,25.38,0,0,1,167.65,1033.15Z"/><circle id="Ellipse_202" data-name="Ellipse 202" class="cls-5" cx="246.78" cy="1042.72" r="18.01"/><circle id="Ellipse_203" data-name="Ellipse 203" class="cls-5" cx="313.74" cy="1074.24" r="18.01"/><circle id="Ellipse_204" data-name="Ellipse 204" class="cls-8" cx="313.74" cy="1074.24" r="12.73"/><circle id="Ellipse_205" data-name="Ellipse 205" class="cls-8" cx="246.78" cy="1042.72" r="12.73"/><g id="Group_437" data-name="Group 437"><g id="Group_435" data-name="Group 435"><circle id="Ellipse_206" data-name="Ellipse 206" class="cls-6" cx="236.53" cy="969.73" r="5.72"/><circle id="Ellipse_207" data-name="Ellipse 207" class="cls-6" cx="221.3" cy="975.2" r="5.72"/></g><g id="Group_436" data-name="Group 436"><circle id="Ellipse_208" data-name="Ellipse 208" class="cls-6" cx="226.78" cy="990.43" r="5.72"/><circle id="Ellipse_209" data-name="Ellipse 209" class="cls-6" cx="242" cy="984.95" r="5.72"/></g></g><path id="Path_752" data-name="Path 752" class="cls-6" d="M354.49,1038.35l4.3,2a3.58,3.58,0,0,0,4.76-1.71l2-4.3a3.57,3.57,0,0,1,4.76-1.71h0l3.17,1.49a3.57,3.57,0,0,1,1.71,4.75l-2,4.31a3.57,3.57,0,0,0,1.71,4.75h0l4.3,2a3.58,3.58,0,0,1,1.71,4.76l-1.5,3.17a3.57,3.57,0,0,1-4.75,1.71l-4.31-2a3.57,3.57,0,0,0-4.75,1.71l-2,4.31a3.57,3.57,0,0,1-4.75,1.71h0l-3.17-1.49a3.58,3.58,0,0,1-1.72-4.76l2-4.3a3.58,3.58,0,0,0-1.71-4.76l-4.3-2a3.57,3.57,0,0,1-1.71-4.75h0l1.49-3.17a3.57,3.57,0,0,1,4.75-1.71Z"/></g></g><g id="Group_242" data-name="Group 242"><g id="Group_235" data-name="Group 235"><path id="Rectangle_41" data-name="Rectangle 41" class="cls-9" d="M499.28,1729.33l-136-94.58a34.86,34.86,0,0,1-8.71-48.52h0l33.25-47.82a34.86,34.86,0,0,1,48.52-8.71l136,94.59h0l-73.06,105Z"/><ellipse id="Ellipse_77" data-name="Ellipse 77" class="cls-10" cx="536.76" cy="1676.48" rx="66" ry="48.67" transform="translate(-1146 1159.75) rotate(-55.18)"/><ellipse id="Ellipse_78" data-name="Ellipse 78" class="cls-6" cx="536.76" cy="1676.48" rx="55.97" ry="37.78" transform="translate(-1146 1159.75) rotate(-55.18)"/><g id="Group_231" data-name="Group 231"><rect id="Rectangle_42" data-name="Rectangle 42" class="cls-11" x="596.63" y="1632.18" width="4.92" height="12.96" rx="1.35" transform="translate(-1088.22 1194.69) rotate(-55.18)"/><rect id="Rectangle_43" data-name="Rectangle 43" class="cls-11" x="552.8" y="1601.69" width="4.92" height="12.96" rx="1.35" transform="translate(-1081.99 1145.63) rotate(-55.18)"/></g><g id="Group_232" data-name="Group 232"><rect id="Rectangle_44" data-name="Rectangle 44" class="cls-11" x="520.7" y="1742.81" width="4.92" height="12.96" rx="1.35" transform="translate(-1211.66 1179.98) rotate(-55.18)"/><rect id="Rectangle_45" data-name="Rectangle 45" class="cls-11" x="476.86" y="1712.32" width="4.92" height="12.96" rx="1.35" transform="translate(-1205.43 1130.91) rotate(-55.18)"/></g><g id="Group_233" data-name="Group 233"><rect id="Rectangle_46" data-name="Rectangle 46" class="cls-11" x="598.8" y="1669.82" width="12.95" height="4.92" rx="1.35" transform="translate(-1113.16 1214.19) rotate(-55.18)"/><rect id="Rectangle_47" data-name="Rectangle 47" class="cls-11" x="548.73" y="1741.79" width="12.95" height="4.92" rx="1.35" transform="translate(-1193.72 1203.96) rotate(-55.18)"/></g><g id="Group_234" data-name="Group 234"><rect id="Rectangle_48" data-name="Rectangle 48" class="cls-11" x="513.97" y="1610.26" width="12.96" height="4.92" rx="1.35" transform="translate(-1100.71 1119.16) rotate(-55.18)"/><rect id="Rectangle_49" data-name="Rectangle 49" class="cls-11" x="463.9" y="1682.24" width="12.96" height="4.92" rx="1.35" transform="translate(-1181.28 1108.94) rotate(-55.18)"/></g><rect id="Rectangle_50" data-name="Rectangle 50" class="cls-12" x="475.22" y="1629.17" width="125.77" height="96.75" rx="4.99" transform="translate(-1146.35 1161.48) rotate(-55.18)"/><path id="Path_374" data-name="Path 374" class="cls-11" d="M593.71,1567.52l-45.54,24.71c-3.38,1.83-3.43,6.54-.07,8.88l60,41.86a5.86,5.86,0,0,0,5.8.58l44.91-21.3c3.51-1.66,3.8-6.37.54-8.85L600,1568.12A5.84,5.84,0,0,0,593.71,1567.52Z"/><path id="Path_375" data-name="Path 375" class="cls-11" d="M611.14,1666.32l-58.27,84.82c-2.8,4.07-1.67,9.46,2.32,11l33.42,13.32c2.93,1.17,6.48-.15,8.51-3.17l43-64a8.08,8.08,0,0,0,.67-8.2L622.65,1666C620.31,1661.6,614.26,1661.78,611.14,1666.32Z"/><path id="Path_376" data-name="Path 376" class="cls-11" d="M534.91,1762.77l-4,46.22c-.3,3.43-4.31,4.55-7.57,2.1L465,1767.26a6.33,6.33,0,0,1-2.68-5l1.3-44.87c.1-3.5,4-4.84,7.38-2.5L532,1757.34A6.29,6.29,0,0,1,534.91,1762.77Z"/><path id="Path_377" data-name="Path 377" class="cls-11" d="M525.8,1596.09l-13.31,6.75a12.29,12.29,0,0,0-4.52,4l-67.42,96.76c-1.33,1.9.24,4.15,2.18,3.12l14.07-7.47a12.51,12.51,0,0,0,4.34-3.9l66.81-96.1C529.26,1597.36,527.73,1595.12,525.8,1596.09Z"/><path id="Path_378" data-name="Path 378" class="cls-13" d="M402.9,1570.48l21.6-65.2a18.61,18.61,0,0,1,23.5-11.82c.41.14.81.29,1.21.45l47.94,19.64A18.58,18.58,0,0,1,508,1536l-10.36,35.59"/><path id="Path_379" data-name="Path 379" class="cls-6" d="M723.73,2557.31,504.8,1722.43l63.92-91.89L1536,2557.31C1313,2642.63,1048.63,2654.11,723.73,2557.31Z"/></g><g id="Group_241" data-name="Group 241"><g id="Group_240" data-name="Group 240"><path id="Rectangle_51" data-name="Rectangle 51" class="cls-9" d="M991.58,1624.3l136-94.59a34.87,34.87,0,0,1,48.52,8.71h0l33.25,47.81a34.86,34.86,0,0,1-8.71,48.52l-136,94.58h0l-73.05-105Z"/><ellipse id="Ellipse_79" data-name="Ellipse 79" class="cls-14" cx="1027.16" cy="1676.48" rx="48.67" ry="66" transform="translate(-773.41 886.81) rotate(-34.82)"/><ellipse id="Ellipse_80" data-name="Ellipse 80" class="cls-4" cx="1027.16" cy="1676.48" rx="37.78" ry="55.97" transform="translate(-773.41 886.81) rotate(-34.82)"/><g id="Group_236" data-name="Group 236"><rect id="Rectangle_52" data-name="Rectangle 52" class="cls-11" x="958.35" y="1636.2" width="12.96" height="4.92" rx="1.35" transform="translate(-762.9 844.27) rotate(-34.82)"/><rect id="Rectangle_53" data-name="Rectangle 53" class="cls-11" x="1002.18" y="1605.71" width="12.95" height="4.92" rx="1.35" transform="translate(-737.71 864.01) rotate(-34.82)"/></g><g id="Group_237" data-name="Group 237"><rect id="Rectangle_54" data-name="Rectangle 54" class="cls-11" x="1034.29" y="1746.83" width="12.96" height="4.92" rx="1.35" transform="translate(-812.47 907.43) rotate(-34.82)"/><rect id="Rectangle_55" data-name="Rectangle 55" class="cls-11" x="1078.12" y="1716.34" width="12.96" height="4.92" rx="1.35" transform="translate(-787.21 927) rotate(-34.82)"/></g><g id="Group_238" data-name="Group 238"><rect id="Rectangle_56" data-name="Rectangle 56" class="cls-11" x="956.18" y="1665.8" width="4.92" height="12.95" rx="1.35" transform="translate(-783.28 846.92) rotate(-34.82)"/><rect id="Rectangle_57" data-name="Rectangle 57" class="cls-11" x="1006.25" y="1737.77" width="4.92" height="12.96" rx="1.35" transform="translate(-815.34 888.23) rotate(-34.82)"/></g><g id="Group_239" data-name="Group 239"><rect id="Rectangle_58" data-name="Rectangle 58" class="cls-11" x="1041.01" y="1606.25" width="4.92" height="12.96" rx="1.35" transform="translate(-734.01 884.53) rotate(-34.82)"/><rect id="Rectangle_59" data-name="Rectangle 59" class="cls-11" x="1091.08" y="1678.22" width="4.92" height="12.96" rx="1.35" transform="translate(-766.14 926) rotate(-34.82)"/></g><rect id="Rectangle_60" data-name="Rectangle 60" class="cls-12" x="977.43" y="1614.67" width="96.75" height="125.77" rx="4.99" transform="matrix(0.82, -0.57, 0.57, 0.82, -774.19, 886.05)"/><path id="Path_380" data-name="Path 380" class="cls-11" d="M970.21,1567.52l45.54,24.71c3.38,1.83,3.43,6.54.07,8.88l-60,41.86a5.86,5.86,0,0,1-5.8.58l-44.9-21.3c-3.51-1.66-3.8-6.37-.54-8.85l59.33-45.28A5.83,5.83,0,0,1,970.21,1567.52Z"/><path id="Path_381" data-name="Path 381" class="cls-11" d="M952.78,1666.32l58.27,84.82c2.8,4.07,1.67,9.46-2.32,11l-33.42,13.32c-2.94,1.17-6.48-.15-8.51-3.17l-43-64a8.11,8.11,0,0,1-.68-8.2L941.27,1666C943.61,1661.6,949.66,1661.78,952.78,1666.32Z"/><path id="Path_382" data-name="Path 382" class="cls-11" d="M1029,1762.77l4,46.22c.3,3.43,4.31,4.55,7.57,2.1l58.4-43.84a6.34,6.34,0,0,0,2.68-5l-1.31-44.87c-.1-3.51-4-4.84-7.38-2.51l-61.08,42.49A6.31,6.31,0,0,0,1029,1762.77Z"/><path id="Path_383" data-name="Path 383" class="cls-11" d="M1038.12,1596.09l13.31,6.75a12.37,12.37,0,0,1,4.52,4l67.42,96.76c1.33,1.9-.24,4.15-2.18,3.12l-14.08-7.47a12.47,12.47,0,0,1-4.33-3.9L1036,1599.24C1034.66,1597.36,1036.19,1595.12,1038.12,1596.09Z"/><path id="Path_384" data-name="Path 384" class="cls-13" d="M1161,1570.48l-21.6-65.2a18.6,18.6,0,0,0-23.5-11.82c-.41.14-.81.29-1.21.45l-47.94,19.64A18.58,18.58,0,0,0,1056,1536l10.36,35.58"/></g><path id="Path_385" data-name="Path 385" class="cls-4" d="M840.19,2557.31l218.93-834.88-63.92-91.89L28,2557.31C251,2642.63,515.28,2654.11,840.19,2557.31Z"/></g></g><path id="Path_386" data-name="Path 386" class="cls-1" d="M390.58,1096.27c35.58,8,38.54,63.75,44.74,142.58s-198,50.86-44.74-54.49,164.77,63,161.15,158.13S239.34,1448.7,376.1,1565.09"/><path id="Path_387" data-name="Path 387" class="cls-15" d="M1337.23,1092s40.08,3.56,9.45,72.69-127.37,32.63-163.63,62.74-34.53,139-87.61,154.55-10,141.68,25.26,185.85,129.13,47.65,115.83-9.16-66.3-16.62-66.3-16.62"/></svg>