<svg id="Layer_1" data-name="Layer 1" xmlns="http://www.w3.org/2000/svg" viewBox="0 0 236.63 236.63"><defs><style>.cls-1{fill:#a0d7d5;}.cls-2{fill:#f5fffd;}</style></defs><g id="logo-4"><circle id="Ellipse_1-4" data-name="Ellipse 1-4" class="cls-1" cx="118.32" cy="118.32" r="90.66"/></g><g id="e2F7Fh.tif"><g id="Group_63" data-name="Group 63"><path id="Path_61" data-name="Path 61" class="cls-2" d="M144.3,76h3.57a5.91,5.91,0,0,0,1.32.18l.27.05A22.84,22.84,0,0,1,162.78,83a.55.55,0,0,0,.59.13,45.12,45.12,0,0,0,9.49-3.06,31.85,31.85,0,0,0,4.59-2.41h0c.14.2,0,.36-.06.53a23,23,0,0,1-9.24,11.74c-.13.09-.32.12-.37.38a45.88,45.88,0,0,0,12.79-3.53,1,1,0,0,1-.25.49A46,46,0,0,1,169.8,98.2a1.28,1.28,0,0,0-.58,1.23,58.17,58.17,0,0,1-.78,12.36,67.54,67.54,0,0,1-7.51,21.76,63.46,63.46,0,0,1-25.57,25.8A64.22,64.22,0,0,1,107.23,167a66.1,66.1,0,0,1-15.76-1.11A65.17,65.17,0,0,1,69.08,157c-.11-.07-.26-.1-.29-.28a46.66,46.66,0,0,0,17.83-1.42c5.43-1.53,14.41-6.12,15.88-8.12a23,23,0,0,1-21.33-16,24.88,24.88,0,0,0,5.17.4,18.12,18.12,0,0,0,5-.82A22.94,22.94,0,0,1,73.16,108a22.88,22.88,0,0,0,5,2,21.43,21.43,0,0,0,5.28.81l-.06-.1-.15-.12a23.07,23.07,0,0,1-7-30.08c.18-.32.27-.34.5-.06q1.83,2.25,3.87,4.3a65.35,65.35,0,0,0,42.78,19.38c.36,0,.47,0,.38-.44a22.14,22.14,0,0,1,1.23-13.49,22.66,22.66,0,0,1,17.17-13.91C142.83,76.17,143.59,76.18,144.3,76Zm23.37,14.32,0,0,0,0,0,0Z"/></g></g></svg>