<svg id="Layer_1" data-name="Layer 1" xmlns="http://www.w3.org/2000/svg" viewBox="0 0 43.47 34.26"><defs><style>.cls-1{fill:#b0eae5;}.cls-2{isolation:isolate;}.cls-3{fill:#f5fffd;}.cls-4{fill:none;stroke:#f5fffd;}</style></defs><g id="Group_455" data-name="Group 455"><path id="Path_2935" data-name="Path 2935" class="cls-1" d="M21.74,3.51c-10.51,0-19,5.37-19,12,0,4,3.17,7.61,8,9.79a6.06,6.06,0,0,1-2.1,5.45c4-.72,6.54-1.95,7.3-3.81a29.15,29.15,0,0,0,5.82.57c10.51,0,19-5.37,19-12S32.25,3.51,21.74,3.51Z"/><g id="_..." data-name=" ..." class="cls-2"><g class="cls-2"><path class="cls-3" d="M18.78,18.76a.48.48,0,0,1-.41-.18.68.68,0,0,1-.15-.45V17.8a.61.61,0,0,1,.15-.45.5.5,0,0,1,.41-.16h.12a.5.5,0,0,1,.41.16.61.61,0,0,1,.15.45v.33a.68.68,0,0,1-.15.45.48.48,0,0,1-.41.18Z"/><path class="cls-3" d="M21.68,18.76a.52.52,0,0,1-.42-.18.73.73,0,0,1-.14-.45V17.8a.65.65,0,0,1,.14-.45.54.54,0,0,1,.42-.16h.11a.54.54,0,0,1,.42.16.65.65,0,0,1,.14.45v.33a.73.73,0,0,1-.14.45.52.52,0,0,1-.42.18Z"/><path class="cls-3" d="M24.58,18.76a.5.5,0,0,1-.42-.18.67.67,0,0,1-.14-.45V17.8a.61.61,0,0,1,.14-.45.52.52,0,0,1,.42-.16h.11a.5.5,0,0,1,.41.16.61.61,0,0,1,.15.45v.33a.68.68,0,0,1-.15.45.48.48,0,0,1-.41.18Z"/></g><g class="cls-2"><path class="cls-4" d="M18.78,18.76a.48.48,0,0,1-.41-.18.68.68,0,0,1-.15-.45V17.8a.61.61,0,0,1,.15-.45.5.5,0,0,1,.41-.16h.12a.5.5,0,0,1,.41.16.61.61,0,0,1,.15.45v.33a.68.68,0,0,1-.15.45.48.48,0,0,1-.41.18Z"/><path class="cls-4" d="M21.68,18.76a.52.52,0,0,1-.42-.18.73.73,0,0,1-.14-.45V17.8a.65.65,0,0,1,.14-.45.54.54,0,0,1,.42-.16h.11a.54.54,0,0,1,.42.16.65.65,0,0,1,.14.45v.33a.73.73,0,0,1-.14.45.52.52,0,0,1-.42.18Z"/><path class="cls-4" d="M24.58,18.76a.5.5,0,0,1-.42-.18.67.67,0,0,1-.14-.45V17.8a.61.61,0,0,1,.14-.45.52.52,0,0,1,.42-.16h.11a.5.5,0,0,1,.41.16.61.61,0,0,1,.15.45v.33a.68.68,0,0,1-.15.45.48.48,0,0,1-.41.18Z"/></g></g></g></svg>