<svg id="Layer_1" data-name="Layer 1" xmlns="http://www.w3.org/2000/svg" viewBox="0 0 102.32 98.92"><defs><style>.cls-1{fill:#a0d7d5;}.cls-2{fill:#00b2a9;}.cls-3{fill:#b0eae5;}</style></defs><g id="Group_450" data-name="Group 450"><path id="Path_1854" data-name="Path 1854" class="cls-1" d="M43.57,57.25H20.94V27.58l26,.3Z"/><path id="Path_1855" data-name="Path 1855" class="cls-2" d="M35.72,60.65A119.06,119.06,0,0,1,11,63.2V23.11a133.69,133.69,0,0,1,24.76,2.56Z"/><path id="Path_1856" data-name="Path 1856" class="cls-3" d="M42.14,59.49c-4.13-11.89.7-42.7,20.56-42.7h9.51c11.21,0,11.61,9.61,11.61,22.3v6.82c0,7.53,3.29,14.31-3.37,14.31H74.06C62.71,60.36,65,67.38,66.83,73a8.22,8.22,0,0,1-.19,5.82c-2.45,5.5-9.79,4.13-9.79-4.12,0,0-.11-3.18-7.83-8.07A14,14,0,0,1,42.14,59.49Z"/><path id="Rectangle_78" data-name="Rectangle 78" class="cls-3" d="M75.06,16.79h8.2a5.65,5.65,0,0,1,5.64,5.64h0a5.64,5.64,0,0,1-5.64,5.64h-8.2a5.27,5.27,0,0,1-5.28-5.27v-.73A5.27,5.27,0,0,1,75.06,16.79Z"/><path id="Rectangle_79" data-name="Rectangle 79" class="cls-3" d="M75.06,48.46h8.2A5.65,5.65,0,0,1,88.9,54.1h0a5.64,5.64,0,0,1-5.64,5.64h-8.2a5.27,5.27,0,0,1-5.28-5.27v-.73A5.27,5.27,0,0,1,75.06,48.46Z"/><path id="Rectangle_80" data-name="Rectangle 80" class="cls-3" d="M77,28.07h9.26a5.1,5.1,0,0,1,5.1,5.1h0a5.1,5.1,0,0,1-5.1,5.1H77a4.77,4.77,0,0,1-4.77-4.76h0v-.66A4.78,4.78,0,0,1,77,28.07Z"/><path id="Rectangle_81" data-name="Rectangle 81" class="cls-3" d="M77,38.27h9.26a5.1,5.1,0,0,1,5.1,5.1h0a5.1,5.1,0,0,1-5.1,5.1H77a4.78,4.78,0,0,1-4.77-4.77h0V43A4.77,4.77,0,0,1,77,38.27Z"/></g></svg>