<svg id="Layer_1" data-name="Layer 1" xmlns="http://www.w3.org/2000/svg" viewBox="0 0 102.32 98.92"><defs><style>.cls-1{fill:#00b2a9;}.cls-2{fill:#a0d7d5;}.cls-3{fill:#b0eae5;}</style></defs><g id="Group_449" data-name="Group 449"><path id="Path_1851" data-name="Path 1851" class="cls-1" d="M81.06,59.87S70.2,40,68.21,36.08c-3.52-4.25-15.28-15.84-15.28-15.84-6.2-4.5-12.4,3-6.2,7.53,0,0,4.84,4,5.36,5.93s7.13,8.24,7.28,9.36,1.32,8.22,2,9.16S81.06,59.87,81.06,59.87Z"/><path id="Path_1852" data-name="Path 1852" class="cls-2" d="M81.79,54.25S73.53,33.19,72.06,29c-3-4.66-13.14-17.65-13.14-17.65-5.58-5.25-12.69,1.43-7.11,6.68,0,0,4.29,4.55,4.56,6.56s6,9.08,6,10.21.26,8.33.8,9.34S81.79,54.25,81.79,54.25Z"/><path id="Path_1853" data-name="Path 1853" class="cls-3" d="M47.25,45.51c1.08,4.42,9.39,8.74,9.39,8.74a37.65,37.65,0,0,1-.57,4.5c-.38,1.72-11.6,7.6-16,5.33s-1.49-4.19-7.38-12.17-11.22-3-12.36-1.71,1.14,4.18,2.09,6.84c-.19,5.13,3,10.84,5.14,13.12,5.7,10.45,8.74,10.45,8.74,10.45,39.92,27.38,45.81-16.91,46-24S66.9,42.6,66.9,42.6c-22-10.11-21-9.36-34.59-4.15a5.21,5.21,0,0,0-3.82,6.3h0a5.21,5.21,0,0,0,6.3,3.81l12.45-3.05"/></g></svg>